<svg xmlns="http://www.w3.org/2000/svg" xmlns:xlink="http://www.w3.org/1999/xlink" preserveAspectRatio="xMidYMid" width="100" height="100" viewBox="0 0 50 50">
  <defs>
    <style>

      .cls-2 {
        fill: #ffffff;
      }
    </style>
  </defs>
  <path d="M24.995,50.007 C11.191,50.007 0.001,38.811 0.001,25.001 C0.001,11.191 11.191,-0.005 24.995,-0.005 C38.798,-0.005 49.988,11.191 49.988,25.001 C49.988,38.811 38.798,50.007 24.995,50.007 ZM24.995,2.321 C12.495,2.321 2.326,12.495 2.326,25.001 C2.326,37.507 12.495,47.680 24.995,47.680 C37.494,47.680 47.663,37.507 47.663,25.001 C47.663,12.495 37.494,2.321 24.995,2.321 ZM37.819,27.195 C38.060,27.226 38.276,27.359 38.412,27.560 C38.549,27.761 38.593,28.010 38.532,28.246 C38.204,29.542 37.691,30.782 37.007,31.931 C36.883,32.139 36.676,32.285 36.437,32.331 C36.199,32.376 35.952,32.318 35.761,32.169 C34.824,31.446 33.398,31.528 32.561,32.364 C31.705,33.221 31.620,34.597 32.366,35.565 C32.514,35.757 32.573,36.003 32.527,36.242 C32.482,36.481 32.336,36.688 32.128,36.812 C30.982,37.494 29.743,38.007 28.447,38.338 C28.210,38.398 27.961,38.354 27.761,38.217 C27.560,38.081 27.427,37.865 27.395,37.623 C27.240,36.412 26.207,35.498 24.996,35.498 C23.783,35.498 22.751,36.412 22.596,37.623 C22.565,37.864 22.432,38.080 22.232,38.217 C22.089,38.314 21.923,38.364 21.755,38.364 C21.685,38.364 21.615,38.355 21.546,38.338 C20.249,38.007 19.010,37.494 17.863,36.812 C17.655,36.688 17.509,36.480 17.464,36.242 C17.418,36.003 17.477,35.756 17.625,35.564 C18.372,34.597 18.288,33.221 17.430,32.363 C16.596,31.529 15.171,31.446 14.230,32.169 C14.039,32.317 13.791,32.374 13.554,32.331 C13.315,32.285 13.108,32.139 12.984,31.931 C12.300,30.781 11.787,29.541 11.459,28.246 C11.399,28.010 11.444,27.761 11.580,27.559 C11.716,27.359 11.932,27.226 12.173,27.195 C13.384,27.039 14.297,26.007 14.297,24.794 C14.297,23.582 13.384,22.549 12.173,22.393 C11.932,22.362 11.716,22.229 11.580,22.029 C11.444,21.828 11.399,21.579 11.459,21.343 C11.787,20.049 12.299,18.809 12.984,17.658 C13.108,17.450 13.315,17.304 13.554,17.258 C13.793,17.215 14.039,17.272 14.231,17.420 C15.168,18.144 16.596,18.061 17.431,17.226 C18.289,16.368 18.372,14.992 17.625,14.025 C17.477,13.833 17.417,13.587 17.463,13.348 C17.508,13.109 17.653,12.901 17.862,12.777 C19.008,12.095 20.247,11.582 21.546,11.251 C21.782,11.192 22.031,11.235 22.232,11.371 C22.432,11.508 22.565,11.724 22.596,11.965 C22.751,13.176 23.783,14.090 24.996,14.090 C26.207,14.090 27.240,13.176 27.395,11.965 C27.427,11.724 27.560,11.508 27.761,11.371 C27.961,11.235 28.210,11.191 28.447,11.251 C29.745,11.582 30.983,12.095 32.129,12.777 C32.338,12.901 32.483,13.109 32.528,13.348 C32.574,13.587 32.514,13.833 32.366,14.025 C31.619,14.992 31.703,16.368 32.561,17.225 C33.397,18.062 34.825,18.143 35.760,17.420 C35.952,17.271 36.197,17.213 36.437,17.258 C36.676,17.304 36.883,17.450 37.007,17.658 C37.691,18.807 38.204,20.046 38.532,21.342 C38.593,21.578 38.549,21.827 38.412,22.029 C38.276,22.229 38.060,22.362 37.819,22.393 C36.608,22.549 35.694,23.582 35.694,24.794 C35.694,26.007 36.608,27.039 37.819,27.195 ZM36.652,20.949 C36.462,20.371 36.229,19.809 35.955,19.266 C35.425,19.502 34.847,19.629 34.264,19.629 C33.168,19.629 32.137,19.202 31.362,18.426 C30.137,17.202 29.837,15.359 30.520,13.828 C29.978,13.555 29.417,13.323 28.839,13.132 C28.240,14.697 26.726,15.787 24.996,15.787 C23.265,15.787 21.751,14.697 21.153,13.132 C20.574,13.323 20.013,13.555 19.471,13.828 C20.154,15.359 19.855,17.202 18.631,18.426 C17.855,19.202 16.825,19.629 15.728,19.629 C15.145,19.629 14.566,19.503 14.036,19.266 C13.762,19.809 13.529,20.372 13.339,20.949 C14.903,21.549 15.993,23.063 15.993,24.794 C15.993,26.525 14.903,28.040 13.339,28.639 C13.529,29.217 13.762,29.780 14.036,30.323 C14.566,30.086 15.144,29.960 15.727,29.960 C16.824,29.960 17.855,30.387 18.630,31.163 C19.854,32.387 20.154,34.230 19.471,35.759 C20.013,36.033 20.575,36.266 21.153,36.456 C21.751,34.892 23.265,33.801 24.996,33.801 C26.726,33.801 28.240,34.892 28.839,36.456 C29.417,36.266 29.978,36.033 30.520,35.759 C29.839,34.229 30.139,32.387 31.362,31.164 C32.548,29.975 34.427,29.641 35.955,30.323 C36.229,29.780 36.462,29.217 36.652,28.639 C35.088,28.040 33.998,26.525 33.998,24.794 C33.998,23.063 35.088,21.549 36.652,20.949 ZM24.996,32.158 C20.937,32.158 17.635,28.855 17.635,24.794 C17.635,20.733 20.937,17.430 24.996,17.430 C29.054,17.430 32.356,20.733 32.356,24.794 C32.356,28.855 29.054,32.158 24.996,32.158 ZM24.996,19.127 C21.872,19.127 19.332,21.670 19.332,24.794 C19.332,27.919 21.872,30.461 24.996,30.461 C28.119,30.461 30.659,27.919 30.659,24.794 C30.659,21.670 28.119,19.127 24.996,19.127 Z" id="path-1" class="cls-2" fill-rule="evenodd"/>
</svg>
