<svg xmlns="http://www.w3.org/2000/svg" xmlns:xlink="http://www.w3.org/1999/xlink" preserveAspectRatio="xMidYMid" width="102" height="102" viewBox="0 0 51 51">
  <defs>
    <style>

      .cls-2 {
        fill: #ffffff;
      }
    </style>
  </defs>
  <path d="M25.495,51.007 C11.415,51.007 0.001,39.588 0.001,25.501 C0.001,11.414 11.415,-0.005 25.495,-0.005 C39.574,-0.005 50.988,11.414 50.988,25.501 C50.988,39.588 39.574,51.007 25.495,51.007 ZM25.495,2.368 C12.745,2.368 2.373,12.745 2.373,25.501 C2.373,38.257 12.745,48.634 25.495,48.634 C38.244,48.634 48.617,38.257 48.617,25.501 C48.617,12.745 38.244,2.368 25.495,2.368 ZM35.616,34.143 C35.409,34.655 34.911,34.991 34.357,34.991 C34.357,34.991 19.045,34.991 19.045,34.991 C18.435,34.991 17.898,34.583 17.736,33.992 C17.736,33.992 14.300,22.617 14.300,22.617 C14.300,22.617 9.114,22.617 9.114,22.617 C8.364,22.617 7.757,22.009 7.757,21.260 C7.757,20.511 8.364,19.901 9.114,19.901 C9.114,19.901 15.335,19.901 15.335,19.901 C15.945,19.901 16.481,20.311 16.643,20.899 C16.643,20.899 20.079,32.277 20.079,32.277 C20.079,32.277 33.443,32.277 33.443,32.277 C33.443,32.277 38.609,20.632 38.609,20.632 C38.889,19.938 39.680,19.601 40.374,19.882 C41.070,20.162 41.406,20.954 41.123,21.649 C41.123,21.649 35.616,34.143 35.616,34.143 ZM27.232,28.519 C23.700,28.519 20.836,25.653 20.836,22.119 C20.836,18.584 23.700,15.716 27.232,15.716 C30.765,15.716 33.629,18.584 33.629,22.119 C33.629,25.653 30.765,28.519 27.232,28.519 ZM31.257,21.231 C31.257,21.231 28.703,21.231 28.703,21.231 C28.703,21.231 28.703,19.124 28.703,19.124 C28.703,18.311 28.044,17.922 27.232,17.922 C26.419,17.922 25.760,18.311 25.760,19.124 C25.760,19.124 25.760,21.231 25.760,21.231 C25.760,21.231 23.208,21.231 23.208,21.231 C23.145,21.231 23.087,21.268 23.060,21.326 C23.033,21.384 23.042,21.451 23.083,21.500 C23.083,21.500 27.108,26.258 27.108,26.258 C27.139,26.294 27.184,26.316 27.232,26.316 C27.280,26.316 27.326,26.294 27.357,26.258 C27.357,26.258 31.381,21.500 31.381,21.500 C31.422,21.451 31.432,21.384 31.404,21.326 C31.379,21.268 31.320,21.231 31.257,21.231 ZM21.318,35.641 C22.479,35.641 23.423,36.584 23.423,37.748 C23.423,38.912 22.479,39.856 21.318,39.856 C20.154,39.856 19.211,38.912 19.211,37.748 C19.211,36.584 20.154,35.641 21.318,35.641 ZM31.844,35.641 C33.009,35.641 33.952,36.584 33.952,37.748 C33.952,38.912 33.009,39.856 31.844,39.856 C30.682,39.856 29.739,38.912 29.739,37.748 C29.739,36.584 30.682,35.641 31.844,35.641 Z" id="path-1" class="cls-2" fill-rule="evenodd"/>
</svg>
