<svg xmlns="http://www.w3.org/2000/svg" xmlns:xlink="http://www.w3.org/1999/xlink" preserveAspectRatio="xMidYMid" width="131" height="131" viewBox="0 0 131 131">
  <defs>
    <style>

      .cls-3 {
        fill: #3e8ede;
        stroke: #ffffff;
        stroke-width: 5px;
      }

      .cls-4 {
        fill: #ffffff;
      }
    </style>
  </defs>
  <g id="3-mediaplayer-music-icon">
    <circle id="circle-1" class="cls-3" cx="65" cy="65" r="63"/>
    <path d="M85.000,34.054 C85.000,33.438 84.711,32.856 84.220,32.484 C83.732,32.114 83.097,31.993 82.502,32.166 C82.502,32.166 55.086,40.055 55.086,40.055 C54.246,40.297 53.667,41.066 53.667,41.943 C53.667,41.943 53.667,77.350 53.667,77.350 C52.026,76.103 50.004,75.335 47.792,75.335 C42.393,75.335 38.000,79.743 38.000,85.161 C38.000,90.578 42.393,94.986 47.792,94.986 C53.190,94.986 57.583,90.578 57.583,85.161 C57.583,85.161 57.583,51.254 57.583,51.254 C57.583,51.254 81.083,44.493 81.083,44.493 C81.083,44.493 81.083,69.490 81.083,69.490 C79.442,68.243 77.421,67.475 75.208,67.475 C69.810,67.475 65.417,71.883 65.417,77.300 C65.417,82.718 69.810,87.126 75.208,87.126 C80.607,87.126 85.000,82.718 85.000,77.300 C85.000,77.300 85.000,34.054 85.000,34.054 ZM47.792,91.056 C44.552,91.056 41.917,88.412 41.917,85.161 C41.917,81.910 44.552,79.266 47.792,79.266 C51.031,79.266 53.667,81.910 53.667,85.161 C53.667,88.412 51.031,91.056 47.792,91.056 ZM57.583,43.424 C57.583,43.424 81.083,36.662 81.083,36.662 C81.083,36.662 81.083,40.404 81.083,40.404 C81.083,40.404 57.583,47.166 57.583,47.166 C57.583,47.166 57.583,43.424 57.583,43.424 ZM75.208,83.196 C71.969,83.196 69.333,80.551 69.333,77.300 C69.333,74.050 71.969,71.405 75.208,71.405 C78.448,71.405 81.083,74.050 81.083,77.300 C81.083,80.551 78.448,83.196 75.208,83.196 Z" id="path-1" class="cls-4" fill-rule="evenodd"/>
  </g>
</svg>
