<svg xmlns="http://www.w3.org/2000/svg" xmlns:xlink="http://www.w3.org/1999/xlink" preserveAspectRatio="xMidYMid" width="26" height="25" viewBox="0 0 26 25">
  <defs>
    <style>

      .cls-2 {
        fill: #808080;
      }
    </style>
  </defs>
  <path d="M12.969,3.341 C12.969,3.341 15.454,7.731 15.454,7.731 C16.043,8.781 17.264,9.641 18.218,9.641 C18.218,9.641 18.219,9.641 18.219,9.641 C18.219,9.641 18.221,9.641 18.221,9.641 C18.221,9.641 23.137,10.497 23.137,10.497 C23.137,10.497 19.733,14.121 19.733,14.121 C18.977,14.928 18.529,16.294 18.667,17.388 C18.667,17.388 19.299,22.419 19.299,22.419 C19.299,22.419 14.695,20.255 14.695,20.255 C14.541,20.182 14.400,20.133 14.308,20.103 C14.308,20.103 13.562,19.786 12.981,19.832 C12.541,19.832 11.888,20.009 11.282,20.294 C11.282,20.294 6.677,22.435 6.677,22.435 C6.677,22.435 7.308,17.386 7.308,17.386 C7.308,17.386 7.309,17.372 7.309,17.372 C7.309,17.372 7.310,17.360 7.310,17.360 C7.389,16.689 7.242,16.045 7.106,15.625 C6.968,15.200 6.707,14.591 6.246,14.098 C6.246,14.098 2.783,10.393 2.783,10.393 C2.783,10.393 7.759,9.436 7.759,9.436 C8.817,9.239 9.965,8.414 10.510,7.463 C10.510,7.463 12.969,3.341 12.969,3.341 M12.993,-0.000 C12.993,-0.000 12.557,-0.000 12.271,0.355 C12.271,0.355 8.677,6.379 8.677,6.379 C8.452,6.786 7.819,7.248 7.368,7.330 C7.368,7.330 1.309,8.495 1.309,8.495 C0.681,8.620 0.225,8.988 0.059,9.502 C-0.106,10.018 0.049,10.585 0.491,11.065 C0.491,11.065 4.700,15.567 4.700,15.567 C5.011,15.898 5.253,16.650 5.200,17.107 C5.200,17.107 4.435,23.213 4.435,23.213 C4.367,23.735 4.489,24.206 4.779,24.539 C5.039,24.838 5.410,24.996 5.820,24.996 C6.072,24.996 6.338,24.936 6.602,24.813 C6.602,24.813 12.179,22.194 12.179,22.194 C12.372,22.103 12.667,22.050 12.981,22.050 C13.034,22.050 13.088,22.052 13.142,22.055 C13.201,22.058 13.260,22.064 13.359,22.077 C13.408,22.084 13.456,22.092 13.497,22.101 C13.497,22.101 13.660,22.143 13.660,22.143 C13.707,22.158 13.754,22.174 13.796,22.194 C13.796,22.194 19.374,24.813 19.374,24.813 C19.640,24.937 19.904,25.000 20.159,25.000 C20.569,25.000 20.937,24.838 21.196,24.541 C21.485,24.209 21.608,23.739 21.541,23.219 C21.541,23.219 20.775,17.109 20.775,17.109 C20.717,16.654 20.960,15.910 21.279,15.572 C21.279,15.572 25.474,11.082 25.474,11.082 C25.919,10.608 26.080,10.056 25.916,9.538 C25.751,9.020 25.291,8.682 24.651,8.556 C24.651,8.556 18.599,7.454 18.599,7.454 C18.156,7.373 17.524,7.037 17.301,6.631 C17.301,6.631 13.715,0.356 13.715,0.356 C13.570,0.091 13.293,-0.000 12.993,-0.000 C12.993,-0.000 12.993,-0.000 12.993,-0.000 Z" id="path-1" class="cls-2" fill-rule="evenodd"/>
</svg>
