<svg xmlns="http://www.w3.org/2000/svg" xmlns:xlink="http://www.w3.org/1999/xlink" preserveAspectRatio="xMidYMid" width="20" height="20" viewBox="0 0 20 20">
  <defs>
    <style>

      .cls-2 {
        fill: #808080;
      }
    </style>
  </defs>
  <path d="M18.000,11.000 C18.000,11.000 20.000,11.000 20.000,11.000 C20.000,11.000 20.000,18.528 20.000,18.528 C20.000,19.503 19.813,20.000 18.838,20.000 C18.838,20.000 1.766,20.000 1.766,20.000 C0.791,20.000 0.000,19.503 0.000,18.528 C0.000,18.528 0.000,1.456 0.000,1.456 C0.000,0.481 0.791,0.000 1.766,0.000 C1.766,0.000 9.000,0.000 9.000,0.000 C9.000,0.000 9.000,2.000 9.000,2.000 C9.000,2.000 2.000,2.000 2.000,2.000 C2.000,2.000 2.000,18.000 2.000,18.000 C2.000,18.000 18.000,18.000 18.000,18.000 C18.000,18.000 18.000,11.000 18.000,11.000 ZM18.838,0.000 C18.838,0.000 11.000,0.000 11.000,0.000 C11.000,0.000 11.000,2.000 11.000,2.000 C11.000,2.000 16.813,2.000 16.813,2.000 C16.813,2.000 5.488,13.276 5.488,13.276 C5.055,13.709 5.055,14.387 5.488,14.820 C5.705,15.037 5.989,15.133 6.273,15.133 C6.557,15.133 6.648,15.019 6.865,14.802 C6.865,14.802 18.000,3.468 18.000,3.468 C18.000,3.468 18.000,9.000 18.000,9.000 C18.000,9.000 20.000,9.000 20.000,9.000 C20.000,9.000 20.000,1.456 20.000,1.456 C20.000,0.481 19.813,0.000 18.838,0.000 Z" id="path-1" class="cls-2" fill-rule="evenodd"/>
</svg>
