<svg xmlns="http://www.w3.org/2000/svg" xmlns:xlink="http://www.w3.org/1999/xlink" preserveAspectRatio="xMidYMid" width="390" height="390" viewBox="0 0 130 130">
  <defs>
    <style>

      .cls-3 {
        fill: #3e8ede;
        stroke: #ffffff;
        stroke-width: 4px;
      }

      .cls-4 {
        fill: #ffffff;
      }
    </style>
  </defs>
  <g id="applications-icon">
    <circle id="circle-1" class="cls-3" cx="65" cy="65" r="63"/>
    <path d="M93.788,96.994 C93.788,96.994 83.125,96.994 83.125,96.994 C81.361,96.994 79.926,95.559 79.926,93.794 C79.926,93.794 79.926,83.126 79.926,83.126 C79.926,81.361 81.361,79.925 83.125,79.925 C83.125,79.925 93.788,79.925 93.788,79.925 C95.551,79.925 96.986,81.361 96.986,83.126 C96.986,83.126 96.986,93.794 96.986,93.794 C96.986,95.559 95.551,96.994 93.788,96.994 ZM92.721,84.192 C92.721,84.192 84.191,84.192 84.191,84.192 C84.191,84.192 84.191,92.728 84.191,92.728 C84.191,92.728 92.721,92.728 92.721,92.728 C92.721,92.728 92.721,84.192 92.721,84.192 ZM93.788,73.524 C93.788,73.524 83.125,73.524 83.125,73.524 C81.361,73.524 79.926,72.089 79.926,70.324 C79.926,70.324 79.926,59.656 79.926,59.656 C79.926,57.891 81.361,56.456 83.125,56.456 C83.125,56.456 93.788,56.456 93.788,56.456 C95.551,56.456 96.986,57.891 96.986,59.656 C96.986,59.656 96.986,70.324 96.986,70.324 C96.986,72.089 95.551,73.524 93.788,73.524 ZM92.721,60.722 C92.721,60.722 84.191,60.722 84.191,60.722 C84.191,60.722 84.191,69.258 84.191,69.258 C84.191,69.258 92.721,69.258 92.721,69.258 C92.721,69.258 92.721,60.722 92.721,60.722 ZM93.788,50.055 C93.788,50.055 83.125,50.055 83.125,50.055 C81.361,50.055 79.926,48.619 79.926,46.854 C79.926,46.854 79.926,36.186 79.926,36.186 C79.926,34.421 81.361,32.986 83.125,32.986 C83.125,32.986 93.788,32.986 93.788,32.986 C95.551,32.986 96.986,34.421 96.986,36.186 C96.986,36.186 96.986,46.854 96.986,46.854 C96.986,48.619 95.551,50.055 93.788,50.055 ZM92.721,37.252 C92.721,37.252 84.191,37.252 84.191,37.252 C84.191,37.252 84.191,45.788 84.191,45.788 C84.191,45.788 92.721,45.788 92.721,45.788 C92.721,45.788 92.721,37.252 92.721,37.252 ZM70.329,96.994 C70.329,96.994 59.666,96.994 59.666,96.994 C57.903,96.994 56.468,95.559 56.468,93.794 C56.468,93.794 56.468,83.126 56.468,83.126 C56.468,81.361 57.903,79.925 59.666,79.925 C59.666,79.925 70.329,79.925 70.329,79.925 C72.093,79.925 73.528,81.361 73.528,83.126 C73.528,83.126 73.528,93.794 73.528,93.794 C73.528,95.559 72.093,96.994 70.329,96.994 ZM69.263,84.192 C69.263,84.192 60.733,84.192 60.733,84.192 C60.733,84.192 60.733,92.728 60.733,92.728 C60.733,92.728 69.263,92.728 69.263,92.728 C69.263,92.728 69.263,84.192 69.263,84.192 ZM70.329,73.524 C70.329,73.524 59.666,73.524 59.666,73.524 C57.903,73.524 56.468,72.089 56.468,70.324 C56.468,70.324 56.468,59.656 56.468,59.656 C56.468,57.891 57.903,56.456 59.666,56.456 C59.666,56.456 70.329,56.456 70.329,56.456 C72.093,56.456 73.528,57.891 73.528,59.656 C73.528,59.656 73.528,70.324 73.528,70.324 C73.528,72.089 72.093,73.524 70.329,73.524 ZM69.263,60.722 C69.263,60.722 60.733,60.722 60.733,60.722 C60.733,60.722 60.733,69.258 60.733,69.258 C60.733,69.258 69.263,69.258 69.263,69.258 C69.263,69.258 69.263,60.722 69.263,60.722 ZM70.329,50.055 C70.329,50.055 59.666,50.055 59.666,50.055 C57.903,50.055 56.468,48.619 56.468,46.854 C56.468,46.854 56.468,36.186 56.468,36.186 C56.468,34.421 57.903,32.986 59.666,32.986 C59.666,32.986 70.329,32.986 70.329,32.986 C72.093,32.986 73.528,34.421 73.528,36.186 C73.528,36.186 73.528,46.854 73.528,46.854 C73.528,48.619 72.093,50.055 70.329,50.055 ZM69.263,37.252 C69.263,37.252 60.733,37.252 60.733,37.252 C60.733,37.252 60.733,45.788 60.733,45.788 C60.733,45.788 69.263,45.788 69.263,45.788 C69.263,45.788 69.263,37.252 69.263,37.252 ZM46.871,96.994 C46.871,96.994 36.208,96.994 36.208,96.994 C34.444,96.994 33.009,95.559 33.009,93.794 C33.009,93.794 33.009,83.126 33.009,83.126 C33.009,81.361 34.444,79.925 36.208,79.925 C36.208,79.925 46.871,79.925 46.871,79.925 C48.635,79.925 50.070,81.361 50.070,83.126 C50.070,83.126 50.070,93.794 50.070,93.794 C50.070,95.559 48.635,96.994 46.871,96.994 ZM45.805,84.192 C45.805,84.192 37.274,84.192 37.274,84.192 C37.274,84.192 37.274,92.728 37.274,92.728 C37.274,92.728 45.805,92.728 45.805,92.728 C45.805,92.728 45.805,84.192 45.805,84.192 ZM46.871,73.524 C46.871,73.524 36.208,73.524 36.208,73.524 C34.444,73.524 33.009,72.089 33.009,70.324 C33.009,70.324 33.009,59.656 33.009,59.656 C33.009,57.891 34.444,56.456 36.208,56.456 C36.208,56.456 46.871,56.456 46.871,56.456 C48.635,56.456 50.070,57.891 50.070,59.656 C50.070,59.656 50.070,70.324 50.070,70.324 C50.070,72.089 48.635,73.524 46.871,73.524 ZM45.805,60.722 C45.805,60.722 37.274,60.722 37.274,60.722 C37.274,60.722 37.274,69.258 37.274,69.258 C37.274,69.258 45.805,69.258 45.805,69.258 C45.805,69.258 45.805,60.722 45.805,60.722 ZM46.871,50.055 C46.871,50.055 36.208,50.055 36.208,50.055 C34.444,50.055 33.009,48.619 33.009,46.854 C33.009,46.854 33.009,36.186 33.009,36.186 C33.009,34.421 34.444,32.986 36.208,32.986 C36.208,32.986 46.871,32.986 46.871,32.986 C48.635,32.986 50.070,34.421 50.070,36.186 C50.070,36.186 50.070,46.854 50.070,46.854 C50.070,48.619 48.635,50.055 46.871,50.055 ZM45.805,37.252 C45.805,37.252 37.274,37.252 37.274,37.252 C37.274,37.252 37.274,45.788 37.274,45.788 C37.274,45.788 45.805,45.788 45.805,45.788 C45.805,45.788 45.805,37.252 45.805,37.252 Z" id="path-1" class="cls-4" fill-rule="evenodd"/>
  </g>
</svg>
