<svg xmlns="http://www.w3.org/2000/svg" xmlns:xlink="http://www.w3.org/1999/xlink" preserveAspectRatio="xMidYMid" width="390" height="390" viewBox="0 0 130 130">
  <defs>
    <style>

      .cls-3 {
        fill: #7f56c5;
        stroke: #ffffff;
        stroke-width: 4px;
      }

      .cls-4 {
        fill: #ffffff;
      }
    </style>
  </defs>
  <g id="channelguide-icon">
    <circle id="circle-1" class="cls-3" cx="65" cy="65" r="63"/>
    <path d="M92.390,94.996 C92.390,94.996 39.610,94.996 39.610,94.996 C36.270,94.996 34.000,92.545 34.000,89.207 C34.000,89.207 34.000,52.884 34.000,52.884 C34.000,49.546 36.270,47.020 39.610,47.020 C39.610,47.020 50.576,47.020 50.576,47.020 C50.576,47.020 38.454,30.166 38.454,30.166 C37.799,29.309 37.931,27.046 38.790,26.392 C39.646,25.737 40.857,25.917 41.512,26.775 C41.512,26.775 54.198,43.455 54.198,43.455 C54.198,43.455 63.539,29.006 63.539,29.006 C64.120,28.098 65.328,28.086 66.236,28.668 C67.144,29.250 67.408,31.034 66.825,31.942 C66.825,31.942 57.843,47.020 57.843,47.020 C57.843,47.020 92.390,47.020 92.390,47.020 C95.730,47.020 98.000,49.546 98.000,52.884 C98.000,52.884 98.000,89.207 98.000,89.207 C98.000,92.545 95.730,94.996 92.390,94.996 ZM94.000,52.748 C94.000,51.793 93.225,51.018 92.270,51.018 C92.270,51.018 39.730,51.018 39.730,51.018 C38.775,51.018 38.000,51.793 38.000,52.748 C38.000,52.748 38.000,89.269 38.000,89.269 C38.000,90.224 38.775,90.998 39.730,90.998 C39.730,90.998 92.270,90.998 92.270,90.998 C93.225,90.998 94.000,90.224 94.000,89.269 C94.000,89.269 94.000,52.748 94.000,52.748 ZM77.248,75.389 C75.152,75.389 73.453,73.691 73.453,71.597 C73.453,69.502 75.152,67.804 77.248,67.804 C79.344,67.804 81.042,69.502 81.042,71.597 C81.042,73.691 79.344,75.389 77.248,75.389 ZM65.711,75.389 C63.615,75.389 61.916,73.691 61.916,71.597 C61.916,69.502 63.615,67.804 65.711,67.804 C67.807,67.804 69.506,69.502 69.506,71.597 C69.506,73.691 67.807,75.389 65.711,75.389 ZM53.832,75.389 C51.736,75.389 50.037,73.691 50.037,71.597 C50.037,69.502 51.736,67.804 53.832,67.804 C55.928,67.804 57.627,69.502 57.627,71.597 C57.627,73.691 55.928,75.389 53.832,75.389 Z" id="path-1" class="cls-4" fill-rule="evenodd"/>
  </g>
</svg>
