<svg xmlns="http://www.w3.org/2000/svg" xmlns:xlink="http://www.w3.org/1999/xlink" preserveAspectRatio="xMidYMid" width="390" height="390" viewBox="0 0 130 130">
  <defs>
    <style>

      .cls-3 {
        fill: #ff5b35;
        stroke: #ffffff;
        stroke-width: 4px;
      }

      .cls-4 {
        fill: #ffffff;
      }
    </style>
  </defs>
  <g id="favorites-icon">
    <circle id="circle-1" class="cls-3" cx="65" cy="65" r="63"/>
    <path d="M84.361,96.641 C84.361,96.641 84.361,96.641 84.361,96.641 C83.687,96.641 82.991,96.476 82.292,96.149 C82.292,96.149 67.591,89.273 67.591,89.273 C67.480,89.221 67.357,89.178 67.231,89.138 C67.231,89.138 66.803,89.029 66.803,89.029 C66.694,89.006 66.567,88.984 66.438,88.966 C66.179,88.931 66.024,88.916 65.867,88.907 C64.884,88.851 63.925,88.995 63.329,89.273 C63.329,89.273 48.630,96.149 48.630,96.149 C46.808,97.000 44.932,96.699 43.825,95.432 C43.062,94.557 42.740,93.321 42.919,91.950 C42.919,91.950 44.936,75.916 44.936,75.916 C45.077,74.715 44.437,72.740 43.617,71.872 C43.617,71.872 32.525,60.050 32.525,60.050 C31.361,58.791 30.951,57.300 31.387,55.947 C31.824,54.596 33.025,53.631 34.682,53.302 C34.682,53.302 50.650,50.243 50.650,50.243 C51.839,50.027 53.505,48.814 54.098,47.746 C54.098,47.746 63.571,31.927 63.571,31.927 C64.324,30.996 65.475,30.996 65.475,30.996 C66.266,30.996 66.994,31.235 67.377,31.930 C67.377,31.930 76.827,48.408 76.827,48.408 C77.417,49.473 79.080,50.355 80.248,50.569 C80.248,50.569 96.200,53.463 96.200,53.463 C97.887,53.794 99.097,54.681 99.531,56.041 C99.964,57.401 99.540,58.851 98.368,60.095 C98.368,60.095 87.311,71.885 87.311,71.885 C86.472,72.773 85.830,74.725 85.984,75.921 C85.984,75.921 88.004,91.965 88.004,91.965 C88.179,93.330 87.856,94.564 87.092,95.436 C86.411,96.216 85.441,96.641 84.361,96.641 ZM36.096,57.483 C36.096,57.483 46.779,68.866 46.779,68.866 C48.483,70.672 49.550,73.931 49.256,76.445 C49.256,76.445 47.306,91.945 47.306,91.945 C47.306,91.945 61.493,85.308 61.493,85.308 C62.885,84.658 64.409,84.521 65.441,84.521 C65.665,84.521 65.890,84.528 66.113,84.540 C66.372,84.555 66.633,84.581 66.891,84.614 C66.891,84.614 67.040,84.634 67.040,84.634 C67.264,84.666 67.479,84.704 67.688,84.747 C67.834,84.777 67.960,84.809 68.085,84.844 C68.267,84.890 68.408,84.926 68.544,84.969 C68.864,85.072 69.156,85.181 69.428,85.308 C69.428,85.308 83.615,91.945 83.615,91.945 C83.615,91.945 81.667,76.465 81.667,76.465 C81.346,73.969 82.412,70.697 84.148,68.861 C84.148,68.861 94.800,57.483 94.800,57.483 C94.800,57.483 79.451,54.539 79.451,54.539 C77.022,54.096 74.250,52.089 73.022,49.874 C73.022,49.874 65.471,36.180 65.471,36.180 C65.471,36.180 57.902,49.872 57.902,49.872 C56.671,52.090 53.896,54.097 51.445,54.542 C51.445,54.542 36.096,57.483 36.096,57.483 Z" id="path-1" class="cls-4" fill-rule="evenodd"/>
  </g>
</svg>
