<svg xmlns="http://www.w3.org/2000/svg" xmlns:xlink="http://www.w3.org/1999/xlink" preserveAspectRatio="xMidYMid" width="26" height="28" viewBox="0 0 26 28">
  <defs>
    <style>

      .cls-2 {
        stroke: #ff5b35;
        stroke-width: 3px;
        fill: none;
      }
    </style>
  </defs>
  <path d="M19.900,6.500 C19.900,6.500 19.900,21.500 19.900,21.500 C19.900,21.500 6.100,21.500 6.100,21.500 C6.100,21.500 6.100,6.500 6.100,6.500 C6.100,6.500 19.900,6.500 19.900,6.500 M23.198,1.500 C23.198,1.500 2.802,1.500 2.802,1.500 C2.083,1.500 1.500,2.134 1.500,2.915 C1.500,2.915 1.500,25.085 1.500,25.085 C1.500,25.867 2.083,26.500 2.802,26.500 C2.802,26.500 23.198,26.500 23.198,26.500 C23.917,26.500 24.500,25.867 24.500,25.085 C24.500,25.085 24.500,2.915 24.500,2.915 C24.500,2.134 23.917,1.500 23.198,1.500 C23.198,1.500 23.198,1.500 23.198,1.500 Z" id="path-1" class="cls-2" fill-rule="evenodd"/>
</svg>
