<svg xmlns="http://www.w3.org/2000/svg" xmlns:xlink="http://www.w3.org/1999/xlink" preserveAspectRatio="xMidYMid" width="19" height="20" viewBox="0 0 19 20">
  <defs>
    <style>

      .cls-2 {
        stroke: #ffffff;
        stroke-width: 2px;
        fill: none;
      }
    </style>
  </defs>
  <path d="M14.179,18.062 C14.179,18.062 14.179,18.062 14.179,18.062 C14.012,18.062 13.839,18.019 13.666,17.934 C13.666,17.934 10.022,16.148 10.022,16.148 C9.994,16.135 9.964,16.124 9.932,16.113 C9.932,16.113 9.826,16.085 9.826,16.085 C9.799,16.079 9.768,16.073 9.736,16.068 C9.671,16.059 9.633,16.055 9.594,16.053 C9.351,16.038 9.113,16.076 8.965,16.148 C8.965,16.148 5.321,17.934 5.321,17.934 C4.869,18.155 4.404,18.077 4.130,17.748 C3.941,17.521 3.861,17.199 3.905,16.843 C3.905,16.843 4.405,12.679 4.405,12.679 C4.440,12.367 4.282,11.854 4.078,11.629 C4.078,11.629 1.329,8.559 1.329,8.559 C1.040,8.232 0.939,7.845 1.047,7.493 C1.155,7.142 1.453,6.892 1.863,6.806 C1.863,6.806 5.822,6.012 5.822,6.012 C6.117,5.956 6.530,5.641 6.677,5.363 C6.677,5.363 9.025,1.255 9.025,1.255 C9.212,1.013 9.497,1.013 9.497,1.013 C9.693,1.013 9.874,1.075 9.969,1.256 C9.969,1.256 12.311,5.535 12.311,5.535 C12.457,5.812 12.870,6.041 13.159,6.096 C13.159,6.096 17.114,6.848 17.114,6.848 C17.532,6.934 17.832,7.164 17.940,7.518 C18.047,7.871 17.942,8.247 17.651,8.570 C17.651,8.570 14.910,11.632 14.910,11.632 C14.702,11.863 14.543,12.370 14.581,12.681 C14.581,12.681 15.082,16.847 15.082,16.847 C15.125,17.202 15.045,17.522 14.856,17.749 C14.687,17.951 14.447,18.062 14.179,18.062 Z" id="path-1" class="cls-2" fill-rule="evenodd"/>
</svg>
