<svg xmlns="http://www.w3.org/2000/svg" xmlns:xlink="http://www.w3.org/1999/xlink" preserveAspectRatio="xMidYMid" width="36" height="36" viewBox="0 0 18 18">
  <defs>
    <style>

      .cls-2 {
        fill: #ffffff;
      }
    </style>
  </defs>
  <path d="M13.930,17.062 C13.930,17.062 13.930,17.062 13.930,17.062 C13.753,17.062 13.571,17.019 13.388,16.934 C13.388,16.934 9.536,15.148 9.536,15.148 C9.507,15.135 9.474,15.124 9.441,15.113 C9.441,15.113 9.329,15.085 9.329,15.085 C9.301,15.079 9.267,15.073 9.234,15.068 C9.166,15.059 9.125,15.055 9.084,15.053 C8.826,15.038 8.575,15.076 8.419,15.148 C8.419,15.148 4.567,16.934 4.567,16.934 C4.090,17.155 3.598,17.077 3.308,16.748 C3.109,16.521 3.024,16.199 3.071,15.843 C3.071,15.843 3.600,11.679 3.600,11.679 C3.636,11.367 3.469,10.854 3.254,10.629 C3.254,10.629 0.347,7.559 0.347,7.559 C0.043,7.232 -0.065,6.845 0.049,6.493 C0.164,6.142 0.478,5.892 0.913,5.806 C0.913,5.806 5.097,5.012 5.097,5.012 C5.408,4.956 5.845,4.641 6.000,4.363 C6.000,4.363 8.482,0.255 8.482,0.255 C8.680,0.013 8.981,0.013 8.981,0.013 C9.188,0.013 9.379,0.075 9.480,0.256 C9.480,0.256 11.956,4.535 11.956,4.535 C12.110,4.812 12.546,5.041 12.852,5.096 C12.852,5.096 17.032,5.848 17.032,5.848 C17.474,5.934 17.791,6.164 17.905,6.518 C18.018,6.871 17.907,7.247 17.600,7.570 C17.600,7.570 14.703,10.632 14.703,10.632 C14.483,10.863 14.315,11.370 14.355,11.681 C14.355,11.681 14.884,15.847 14.884,15.847 C14.930,16.202 14.846,16.522 14.646,16.749 C14.467,16.951 14.213,17.062 13.930,17.062 Z" id="path-1" class="cls-2" fill-rule="evenodd"/>
</svg>
