<svg xmlns="http://www.w3.org/2000/svg" xmlns:xlink="http://www.w3.org/1999/xlink" preserveAspectRatio="xMidYMid" width="30" height="30" viewBox="0 0 30 30">
  <defs>
    <style>

      .cls-2 {
        fill: #b4b4b4;
        fill-opacity: 0.99;
      }
    </style>
  </defs>
  <path d="M30.000,15.000 C30.000,15.000 23.572,8.571 23.572,8.571 C23.572,8.571 23.572,13.661 23.572,13.661 C23.572,13.661 16.339,13.661 16.339,13.661 C16.339,13.661 16.339,6.429 16.339,6.429 C16.339,6.429 21.428,6.429 21.428,6.429 C21.428,6.429 15.000,0.000 15.000,0.000 C15.000,0.000 8.572,6.429 8.572,6.429 C8.572,6.429 13.661,6.429 13.661,6.429 C13.661,6.429 13.661,13.661 13.661,13.661 C13.661,13.661 6.429,13.661 6.429,13.661 C6.429,13.661 6.429,8.571 6.429,8.571 C6.429,8.571 -0.000,15.000 -0.000,15.000 C-0.000,15.000 6.429,21.429 6.429,21.429 C6.429,21.429 6.429,16.339 6.429,16.339 C6.429,16.339 13.661,16.339 13.661,16.339 C13.661,16.339 13.661,23.571 13.661,23.571 C13.661,23.571 8.572,23.571 8.572,23.571 C8.572,23.571 15.000,30.000 15.000,30.000 C15.000,30.000 21.428,23.571 21.428,23.571 C21.428,23.571 16.326,23.571 16.326,23.571 C16.326,23.571 16.299,16.306 16.299,16.306 C16.299,16.306 23.572,16.326 23.572,16.326 C23.572,16.326 23.572,21.429 23.572,21.429 C23.572,21.429 30.000,15.000 30.000,15.000 Z" id="path-1" class="cls-2" fill-rule="evenodd"/>
</svg>
