<svg xmlns="http://www.w3.org/2000/svg" xmlns:xlink="http://www.w3.org/1999/xlink" preserveAspectRatio="xMidYMid" width="45" height="45" viewBox="0 0 45 45">
  <defs>
    <style>

      .cls-2 {
        fill: #ffffff;
      }
    </style>
  </defs>
  <path d="M22.495,45.006 C21.157,45.006 19.848,44.884 18.574,44.660 C18.574,44.660 20.326,42.797 20.326,42.797 C21.045,42.873 21.770,42.912 22.495,42.912 C33.745,42.912 42.897,33.756 42.897,22.501 C42.897,11.246 33.745,2.089 22.495,2.089 C11.246,2.089 2.094,11.246 2.094,22.501 C2.094,28.744 4.989,34.668 9.871,38.527 C9.871,38.527 9.684,40.994 9.684,40.994 C9.567,40.912 9.447,40.836 9.332,40.752 C3.679,36.664 0.001,30.012 0.001,22.501 C0.001,10.072 10.072,-0.005 22.495,-0.005 C34.919,-0.005 44.990,10.072 44.990,22.501 C44.990,34.930 34.919,45.006 22.495,45.006 ZM25.333,9.699 C25.333,9.699 32.619,13.290 32.619,13.290 C32.619,13.290 21.933,34.984 21.933,34.984 C21.926,35.113 14.103,42.228 14.103,42.228 C14.004,42.319 13.887,42.346 13.799,42.305 C13.712,42.260 13.664,42.151 13.673,42.019 C13.673,42.019 14.548,31.478 14.649,31.389 C14.649,31.389 25.333,9.699 25.333,9.699 ZM24.507,13.880 C24.507,13.880 16.152,30.840 16.152,30.840 C16.152,30.840 17.645,32.510 17.645,32.510 C17.645,32.510 26.354,14.827 26.354,14.827 C26.354,14.827 24.507,13.880 24.507,13.880 ZM29.640,16.599 C29.640,16.599 27.933,15.607 27.933,15.607 C27.933,15.607 19.220,33.290 19.220,33.290 C19.220,33.290 21.286,33.559 21.286,33.559 C21.286,33.559 29.640,16.599 29.640,16.599 ZM15.327,39.204 C15.387,39.231 15.464,39.213 15.531,39.154 C15.531,39.154 20.392,35.110 20.399,35.022 C20.405,34.933 20.374,34.860 20.315,34.832 C20.315,34.832 17.408,34.907 17.408,34.907 C17.408,34.907 15.754,32.585 15.754,32.585 C15.695,32.552 15.618,32.574 15.553,32.633 C15.487,32.692 15.243,39.012 15.243,39.012 C15.235,39.101 15.270,39.175 15.327,39.204 Z" id="path-1" class="cls-2" fill-rule="evenodd"/>
</svg>
