<svg xmlns="http://www.w3.org/2000/svg" xmlns:xlink="http://www.w3.org/1999/xlink" preserveAspectRatio="xMidYMid" width="25" height="25" viewBox="0 0 25 25">
  <defs>
    <style>

      .cls-2 {
        fill: #b4b4b4;
      }
    </style>
  </defs>
  <path d="M23.596,25.000 C23.596,25.000 1.404,25.000 1.404,25.000 C0.629,25.000 -0.000,24.371 -0.000,23.596 C-0.000,23.596 -0.000,1.404 -0.000,1.404 C-0.000,0.629 0.629,-0.000 1.404,-0.000 C1.404,-0.000 23.596,-0.000 23.596,-0.000 C24.371,-0.000 25.000,0.629 25.000,1.404 C25.000,1.404 25.000,23.596 25.000,23.596 C25.000,24.371 24.371,25.000 23.596,25.000 ZM7.188,6.749 C4.447,6.749 2.543,8.764 2.543,12.167 C2.543,15.586 4.447,17.683 7.188,17.683 C9.947,17.683 11.850,15.586 11.850,12.167 C11.850,8.764 9.947,6.749 7.188,6.749 ZM21.718,6.818 C21.718,6.818 19.638,6.818 19.638,6.818 C19.638,6.818 15.909,11.705 15.909,11.705 C15.909,11.705 15.909,6.818 15.909,6.818 C15.909,6.818 14.015,6.818 14.015,6.818 C14.015,6.818 14.015,17.424 14.015,17.424 C14.015,17.424 15.909,17.424 15.909,17.424 C15.909,17.424 15.909,14.409 15.909,14.409 C15.909,14.409 17.386,12.490 17.386,12.490 C17.386,12.490 20.203,17.424 20.203,17.424 C20.203,17.424 22.267,17.424 22.267,17.424 C22.267,17.424 18.477,10.959 18.477,10.959 C18.477,10.959 21.718,6.818 21.718,6.818 ZM15.880,11.742 C15.880,11.742 15.909,11.705 15.909,11.705 C15.909,11.705 15.909,11.742 15.909,11.742 C15.909,11.742 15.880,11.742 15.880,11.742 ZM7.188,16.054 C5.527,16.054 4.462,14.538 4.462,12.167 C4.462,9.812 5.527,8.377 7.188,8.377 C8.850,8.377 9.914,9.812 9.914,12.167 C9.914,14.538 8.850,16.054 7.188,16.054 Z" id="path-1" class="cls-2" fill-rule="evenodd"/>
</svg>
