<svg xmlns="http://www.w3.org/2000/svg" xmlns:xlink="http://www.w3.org/1999/xlink" preserveAspectRatio="xMidYMid" width="19" height="34" viewBox="0 0 19 34">
  <defs>
    <style>

      .cls-2 {
        fill: #ffffff;
      }
    </style>
  </defs>
  <path d="M1.892,33.994 C1.406,33.994 0.920,33.809 0.549,33.441 C-0.193,32.704 -0.193,31.508 0.549,30.771 C0.549,30.771 14.402,16.999 14.402,16.999 C14.402,16.999 0.549,3.227 0.549,3.227 C-0.193,2.490 -0.193,1.294 0.549,0.558 C1.291,-0.181 2.494,-0.180 3.236,0.558 C3.236,0.558 18.432,15.664 18.432,15.664 C19.173,16.402 19.173,17.596 18.432,18.334 C18.432,18.334 3.236,33.441 3.236,33.441 C2.865,33.809 2.378,33.994 1.892,33.994 Z" id="path-1" class="cls-2" fill-rule="evenodd"/>
</svg>
