<svg xmlns="http://www.w3.org/2000/svg" xmlns:xlink="http://www.w3.org/1999/xlink" preserveAspectRatio="xMidYMid" width="45" height="45" viewBox="0 0 45 45">
  <defs>
    <style>

      .cls-2 {
        fill: #ffffff;
      }
    </style>
  </defs>
  <path d="M22.495,45.006 C10.072,45.006 0.001,34.930 0.001,22.501 C0.001,10.072 10.072,-0.005 22.495,-0.005 C34.918,-0.005 44.990,10.072 44.990,22.501 C44.990,34.930 34.918,45.006 22.495,45.006 ZM22.495,2.089 C11.246,2.089 2.094,11.246 2.094,22.501 C2.094,33.756 11.246,42.912 22.495,42.912 C33.745,42.912 42.897,33.756 42.897,22.501 C42.897,11.246 33.745,2.089 22.495,2.089 ZM34.037,24.476 C34.254,24.504 34.448,24.623 34.571,24.804 C34.694,24.985 34.734,25.209 34.679,25.421 C34.383,26.588 33.922,27.704 33.307,28.737 C33.195,28.925 33.008,29.057 32.794,29.098 C32.579,29.139 32.357,29.086 32.184,28.952 C31.341,28.302 30.058,28.375 29.305,29.127 C28.534,29.899 28.458,31.137 29.129,32.008 C29.263,32.181 29.316,32.403 29.275,32.618 C29.234,32.832 29.102,33.019 28.915,33.131 C27.883,33.745 26.769,34.207 25.602,34.504 C25.389,34.558 25.165,34.519 24.985,34.395 C24.804,34.273 24.684,34.078 24.656,33.861 C24.516,32.771 23.587,31.949 22.496,31.949 C21.404,31.949 20.476,32.771 20.337,33.861 C20.308,34.077 20.189,34.272 20.009,34.395 C19.880,34.482 19.731,34.527 19.579,34.527 C19.517,34.527 19.453,34.520 19.391,34.504 C18.224,34.207 17.109,33.745 16.077,33.131 C15.890,33.019 15.758,32.832 15.717,32.618 C15.676,32.403 15.729,32.181 15.863,32.008 C16.534,31.137 16.459,29.899 15.687,29.127 C14.937,28.376 13.654,28.301 12.807,28.952 C12.635,29.085 12.412,29.137 12.198,29.098 C11.984,29.057 11.797,28.925 11.685,28.737 C11.070,27.703 10.608,26.587 10.313,25.421 C10.259,25.209 10.299,24.985 10.422,24.803 C10.545,24.623 10.739,24.504 10.955,24.476 C12.046,24.335 12.867,23.406 12.867,22.315 C12.867,21.224 12.046,20.294 10.955,20.154 C10.739,20.126 10.545,20.006 10.422,19.826 C10.299,19.645 10.259,19.421 10.313,19.209 C10.608,18.044 11.069,16.928 11.685,15.893 C11.797,15.705 11.984,15.573 12.198,15.532 C12.414,15.493 12.635,15.545 12.808,15.678 C13.651,16.330 14.936,16.255 15.688,15.503 C16.460,14.731 16.534,13.493 15.863,12.623 C15.729,12.450 15.675,12.228 15.716,12.013 C15.758,11.798 15.888,11.611 16.076,11.499 C17.107,10.885 18.222,10.423 19.391,10.126 C19.604,10.073 19.828,10.112 20.009,10.234 C20.189,10.357 20.308,10.552 20.337,10.769 C20.476,11.858 21.404,12.681 22.496,12.681 C23.587,12.681 24.516,11.858 24.656,10.768 C24.684,10.552 24.804,10.357 24.985,10.234 C25.165,10.112 25.389,10.072 25.602,10.126 C26.770,10.423 27.885,10.885 28.916,11.499 C29.104,11.611 29.234,11.798 29.275,12.013 C29.316,12.228 29.263,12.450 29.129,12.623 C28.457,13.493 28.533,14.731 29.305,15.503 C30.057,16.256 31.342,16.329 32.184,15.678 C32.357,15.544 32.577,15.492 32.794,15.532 C33.008,15.573 33.195,15.705 33.307,15.893 C33.922,16.926 34.383,18.042 34.679,19.208 C34.734,19.420 34.694,19.644 34.571,19.826 C34.448,20.006 34.254,20.126 34.037,20.154 C32.947,20.294 32.125,21.224 32.125,22.315 C32.125,23.406 32.947,24.335 34.037,24.476 ZM32.987,18.854 C32.816,18.334 32.607,17.828 32.360,17.340 C31.883,17.552 31.362,17.666 30.837,17.666 C29.851,17.666 28.924,17.282 28.226,16.583 C27.124,15.482 26.854,13.823 27.468,12.446 C26.980,12.199 26.475,11.991 25.955,11.819 C25.416,13.227 24.053,14.208 22.496,14.208 C20.938,14.208 19.576,13.227 19.037,11.819 C18.517,11.991 18.011,12.199 17.524,12.446 C18.139,13.823 17.870,15.482 16.768,16.583 C16.070,17.282 15.143,17.666 14.155,17.666 C13.631,17.666 13.109,17.553 12.632,17.340 C12.385,17.828 12.176,18.335 12.005,18.854 C13.413,19.394 14.394,20.757 14.394,22.315 C14.394,23.872 13.413,25.236 12.005,25.775 C12.176,26.295 12.385,26.802 12.632,27.290 C13.109,27.078 13.630,26.964 14.155,26.964 C15.142,26.964 16.069,27.348 16.767,28.047 C17.868,29.148 18.138,30.807 17.524,32.184 C18.011,32.430 18.518,32.639 19.037,32.810 C19.576,31.403 20.938,30.421 22.496,30.421 C24.053,30.421 25.416,31.403 25.955,32.810 C26.475,32.639 26.980,32.430 27.468,32.184 C26.855,30.806 27.125,29.148 28.226,28.047 C29.293,26.978 30.984,26.677 32.360,27.290 C32.607,26.802 32.816,26.295 32.987,25.775 C31.579,25.236 30.598,23.872 30.598,22.315 C30.598,20.757 31.579,19.394 32.987,18.854 ZM22.496,28.943 C18.843,28.943 15.872,25.969 15.872,22.315 C15.872,18.660 18.843,15.687 22.496,15.687 C26.148,15.687 29.120,18.660 29.120,22.315 C29.120,25.969 26.148,28.943 22.496,28.943 ZM22.496,17.214 C19.685,17.214 17.398,19.503 17.398,22.315 C17.398,25.127 19.685,27.415 22.496,27.415 C25.307,27.415 27.593,25.127 27.593,22.315 C27.593,19.503 25.307,17.214 22.496,17.214 Z" id="path-1" class="cls-2" fill-rule="evenodd"/>
</svg>
