<svg xmlns="http://www.w3.org/2000/svg" xmlns:xlink="http://www.w3.org/1999/xlink" preserveAspectRatio="xMidYMid" width="45" height="45" viewBox="0 0 45 45">
  <defs>
    <style>

      .cls-2 {
        fill: #ffffff;
      }
    </style>
  </defs>
  <path d="M22.495,45.006 C10.072,45.006 0.001,34.930 0.001,22.501 C0.001,10.072 10.072,-0.004 22.495,-0.004 C34.918,-0.004 44.990,10.072 44.990,22.501 C44.990,34.930 34.918,45.006 22.495,45.006 ZM22.495,2.089 C11.246,2.089 2.094,11.246 2.094,22.501 C2.094,33.756 11.246,42.912 22.495,42.912 C33.745,42.912 42.897,33.756 42.897,22.501 C42.897,11.246 33.745,2.089 22.495,2.089 ZM31.426,30.126 C31.243,30.578 30.804,30.875 30.315,30.875 C30.315,30.875 16.805,30.875 16.805,30.875 C16.266,30.875 15.793,30.514 15.650,29.993 C15.650,29.993 12.618,19.956 12.618,19.956 C12.618,19.956 8.042,19.956 8.042,19.956 C7.380,19.956 6.845,19.420 6.845,18.759 C6.845,18.098 7.380,17.560 8.042,17.560 C8.042,17.560 13.531,17.560 13.531,17.560 C14.069,17.560 14.542,17.922 14.685,18.440 C14.685,18.440 17.716,28.479 17.716,28.479 C17.716,28.479 29.509,28.479 29.509,28.479 C29.509,28.479 34.067,18.205 34.067,18.205 C34.314,17.592 35.012,17.295 35.624,17.543 C36.238,17.790 36.535,18.488 36.285,19.102 C36.285,19.102 31.426,30.126 31.426,30.126 ZM24.028,25.163 C20.911,25.163 18.384,22.635 18.384,19.516 C18.384,16.397 20.911,13.867 24.028,13.867 C27.146,13.867 29.672,16.397 29.672,19.516 C29.672,22.635 27.146,25.163 24.028,25.163 ZM27.579,18.733 C27.579,18.733 25.326,18.733 25.326,18.733 C25.326,18.733 25.326,16.874 25.326,16.874 C25.326,16.157 24.745,15.814 24.028,15.814 C23.311,15.814 22.730,16.157 22.730,16.874 C22.730,16.874 22.730,18.733 22.730,18.733 C22.730,18.733 20.477,18.733 20.477,18.733 C20.422,18.733 20.371,18.766 20.347,18.817 C20.323,18.868 20.331,18.928 20.368,18.971 C20.368,18.971 23.918,23.169 23.918,23.169 C23.946,23.201 23.985,23.220 24.028,23.220 C24.071,23.220 24.111,23.201 24.138,23.169 C24.138,23.169 27.689,18.971 27.689,18.971 C27.725,18.928 27.734,18.868 27.710,18.817 C27.687,18.766 27.635,18.733 27.579,18.733 ZM18.810,31.448 C19.835,31.448 20.667,32.280 20.667,33.307 C20.667,34.334 19.835,35.167 18.810,35.167 C17.783,35.167 16.951,34.334 16.951,33.307 C16.951,32.280 17.783,31.448 18.810,31.448 ZM28.098,31.448 C29.125,31.448 29.958,32.280 29.958,33.307 C29.958,34.334 29.125,35.167 28.098,35.167 C27.073,35.167 26.240,34.334 26.240,33.307 C26.240,32.280 27.073,31.448 28.098,31.448 Z" id="path-1" class="cls-2" fill-rule="evenodd"/>
</svg>
