<svg xmlns="http://www.w3.org/2000/svg" xmlns:xlink="http://www.w3.org/1999/xlink" preserveAspectRatio="xMidYMid" width="130" height="130" viewBox="0 0 130 130">
  <defs>
    <style>

      .cls-3 {
        fill: #57c9e8;
        stroke: #ffffff;
        stroke-width: 4px;
      }

      .cls-4 {
        fill: #ffffff;
      }
    </style>
  </defs>
  <g id="mediabrowser-icon">
    <circle id="circle-1" class="cls-3" cx="65" cy="65" r="63"/>
    <path d="M51.040,98.001 C50.690,98.001 50.340,97.901 50.025,97.700 C49.379,97.288 48.979,96.516 48.979,95.678 C48.979,95.678 48.979,33.432 48.979,33.432 C48.979,32.595 49.379,31.822 50.025,31.410 C50.672,30.998 51.465,31.009 52.102,31.441 C52.102,31.441 97.989,62.561 97.989,62.561 C98.608,62.981 98.987,63.737 98.987,64.552 C98.987,65.368 98.608,66.124 97.989,66.544 C97.989,66.544 52.102,97.669 52.102,97.669 C51.776,97.890 51.408,98.001 51.040,98.001 ZM53.101,37.541 C53.101,37.541 53.101,91.569 53.101,91.569 C53.101,91.569 92.929,64.552 92.929,64.552 C92.929,64.552 53.101,37.541 53.101,37.541 Z" id="path-1" class="cls-4" fill-rule="evenodd"/>
  </g>
</svg>
