<svg xmlns="http://www.w3.org/2000/svg" xmlns:xlink="http://www.w3.org/1999/xlink" preserveAspectRatio="xMidYMid" width="130" height="130" viewBox="0 0 130 130">
  <defs>
    <style>

      .cls-3 {
        fill: #f7931e;
        stroke: #ffffff;
        stroke-width: 4px;
      }

      .cls-4 {
        fill: #ffffff;
      }
    </style>
  </defs>
  <g id="recent-icon">
    <circle id="circle-1" class="cls-3" cx="65" cy="65" r="63"/>
    <path d="M92.689,84.000 C92.689,84.000 84.000,84.000 84.000,84.000 C84.000,84.000 84.000,93.077 84.000,93.077 C84.000,94.214 83.208,95.000 82.070,95.000 C82.070,95.000 36.810,95.000 36.810,95.000 C35.672,95.000 35.000,94.214 35.000,93.077 C35.000,93.077 35.000,47.810 35.000,47.810 C35.000,46.672 35.672,45.000 36.810,45.000 C36.810,45.000 45.000,45.000 45.000,45.000 C45.000,45.000 45.000,37.190 45.000,37.190 C45.000,36.052 46.291,35.000 47.429,35.000 C47.429,35.000 92.689,35.000 92.689,35.000 C93.827,35.000 95.000,36.052 95.000,37.190 C95.000,37.190 95.000,82.457 95.000,82.457 C95.000,83.595 93.827,84.000 92.689,84.000 ZM45.000,82.457 C45.000,82.457 45.000,49.000 45.000,49.000 C45.000,49.000 39.000,49.000 39.000,49.000 C39.000,49.000 39.000,91.000 39.000,91.000 C39.000,91.000 80.000,91.000 80.000,91.000 C80.000,91.000 80.000,84.000 80.000,84.000 C80.000,84.000 47.429,84.000 47.429,84.000 C46.291,84.000 45.000,83.595 45.000,82.457 ZM91.000,39.000 C91.000,39.000 49.000,39.000 49.000,39.000 C49.000,39.000 49.000,45.496 49.000,45.496 C49.000,45.496 49.000,49.496 49.000,49.496 C49.000,49.496 49.000,80.000 49.000,80.000 C49.000,80.000 80.000,80.000 80.000,80.000 C80.000,80.000 84.000,80.000 84.000,80.000 C84.000,80.000 91.000,80.000 91.000,80.000 C91.000,80.000 91.000,39.000 91.000,39.000 ZM77.937,65.121 C76.842,65.121 75.959,64.236 75.959,63.141 C75.959,63.141 75.959,56.731 75.959,56.731 C75.959,56.731 63.673,69.020 63.673,69.020 C62.900,69.791 61.650,69.791 60.875,69.020 C60.104,68.248 60.104,66.993 60.875,66.222 C60.875,66.222 73.183,53.915 73.183,53.915 C73.183,53.915 66.734,53.903 66.734,53.903 C65.644,53.903 64.761,53.018 64.761,51.927 C64.761,51.923 64.761,51.923 64.761,51.923 C64.763,50.829 65.651,49.946 66.742,49.946 C66.742,49.946 77.940,49.965 77.940,49.965 C79.031,49.968 79.916,50.853 79.916,51.944 C79.916,51.944 79.916,63.141 79.916,63.141 C79.916,64.236 79.030,65.121 77.937,65.121 Z" id="path-1" class="cls-4" fill-rule="evenodd"/>
  </g>
</svg>
