<svg xmlns="http://www.w3.org/2000/svg" xmlns:xlink="http://www.w3.org/1999/xlink" preserveAspectRatio="xMidYMid" width="130" height="130" viewBox="0 0 130 130">
  <defs>
    <style>

      .cls-3 {
        fill: #00b288;
        stroke: #ffffff;
        stroke-width: 4px;
      }

      .cls-4 {
        fill: #ffffff;
      }
    </style>
  </defs>
  <g id="setti̇ngs-icon">
    <circle id="circle-1" class="cls-3" cx="65" cy="65" r="63"/>
    <path d="M65.410,48.775 C56.597,48.775 49.427,55.829 49.427,64.500 C49.427,73.171 56.597,80.225 65.410,80.225 C74.224,80.225 81.394,73.171 81.394,64.500 C81.394,55.829 74.224,48.775 65.410,48.775 ZM65.410,76.225 C58.732,76.225 53.424,71.033 53.424,64.500 C53.424,57.967 58.732,52.775 65.410,52.775 C72.089,52.775 77.396,57.967 77.396,64.500 C77.396,71.033 72.089,76.225 65.410,76.225 ZM98.457,73.377 C98.457,73.377 90.924,67.850 90.924,67.850 C91.094,66.846 91.094,65.673 91.094,64.500 C91.094,63.327 90.924,62.323 90.924,61.150 C90.924,61.150 98.113,55.623 98.113,55.623 C98.799,55.121 98.970,54.283 98.456,53.446 C98.456,53.446 91.607,41.888 91.607,41.888 C91.356,41.396 90.738,41.086 90.157,41.086 C89.944,41.086 89.736,41.127 89.552,41.217 C89.552,41.217 80.991,44.567 80.991,44.567 C79.279,43.227 77.225,42.054 75.170,41.217 C75.170,41.217 73.971,32.340 73.971,32.340 C73.801,31.671 73.115,31.000 72.259,31.000 C72.259,31.000 58.561,31.000 58.561,31.000 C57.705,31.000 57.019,31.671 56.849,32.340 C56.849,32.340 55.479,41.217 55.479,41.217 C53.424,42.054 51.541,43.227 49.657,44.567 C49.657,44.567 41.095,41.217 41.095,41.217 C40.866,41.127 40.637,41.086 40.418,41.086 C39.818,41.086 39.291,41.396 39.040,41.888 C39.040,41.888 32.191,53.446 32.191,53.446 C31.850,54.115 32.021,55.121 32.534,55.623 C32.534,55.623 39.897,61.150 39.897,61.150 C39.897,62.323 39.726,63.327 39.726,64.500 C39.726,65.673 39.897,66.677 39.897,67.850 C39.897,67.850 32.707,73.377 32.707,73.377 C32.021,73.879 31.851,74.717 32.364,75.554 C32.364,75.554 39.213,87.112 39.213,87.112 C39.464,87.604 40.082,87.914 40.664,87.914 C40.876,87.914 41.085,87.873 41.268,87.783 C41.268,87.783 49.830,84.433 49.830,84.433 C51.542,85.773 53.595,86.946 55.650,87.783 C55.650,87.783 57.019,96.660 57.019,96.660 C57.192,97.498 57.876,98.000 58.732,98.000 C58.732,98.000 72.430,98.000 72.430,98.000 C73.286,98.000 73.972,97.329 74.142,96.660 C74.142,96.660 75.513,87.783 75.513,87.783 C77.567,86.946 79.451,85.773 81.334,84.433 C81.334,84.433 89.896,87.783 89.896,87.783 C90.125,87.873 90.354,87.914 90.573,87.914 C91.173,87.914 91.699,87.604 91.951,87.112 C91.951,87.112 98.800,75.554 98.800,75.554 C99.142,74.885 98.970,73.879 98.457,73.377 ZM89.534,83.347 C89.534,83.347 82.790,80.708 82.790,80.708 C82.790,80.708 80.778,79.920 80.778,79.920 C80.778,79.920 79.017,81.174 79.017,81.174 C77.056,82.569 75.510,83.465 74.004,84.079 C74.004,84.079 71.908,84.934 71.908,84.934 C71.908,84.934 71.563,87.172 71.563,87.172 C71.563,87.172 70.508,94.000 70.508,94.000 C70.508,94.000 60.654,94.000 60.654,94.000 C60.654,94.000 59.601,87.173 59.601,87.173 C59.601,87.173 59.256,84.934 59.256,84.934 C59.256,84.934 57.158,84.079 57.158,84.079 C55.420,83.370 53.691,82.377 52.292,81.282 C52.292,81.282 50.496,79.877 50.496,79.877 C50.496,79.877 48.373,80.708 48.373,80.708 C48.373,80.708 41.629,83.347 41.629,83.347 C41.629,83.347 36.832,75.251 36.832,75.251 C36.832,75.251 42.139,71.022 42.139,71.022 C42.139,71.022 43.508,69.821 43.508,69.821 C43.508,69.821 43.508,67.850 43.508,67.850 C43.508,67.107 43.650,66.446 43.604,65.862 C43.565,65.362 43.627,64.930 43.627,64.500 C43.627,64.070 43.516,63.638 43.555,63.138 C43.601,62.554 43.508,61.893 43.508,61.150 C43.508,61.150 43.508,59.150 43.508,59.150 C43.508,59.150 42.103,57.950 42.103,57.950 C42.103,57.950 36.575,53.728 36.575,53.728 C36.575,53.728 41.408,45.653 41.408,45.653 C41.408,45.653 48.177,48.292 48.177,48.292 C48.177,48.292 50.200,49.079 50.200,49.079 C50.200,49.079 51.967,47.828 51.967,47.828 C53.932,46.430 55.482,45.533 56.984,44.921 C56.984,44.921 59.083,44.066 59.083,44.066 C59.083,44.066 59.429,41.827 59.429,41.827 C59.429,41.827 60.484,35.000 60.484,35.000 C60.484,35.000 70.297,35.000 70.297,35.000 C70.297,35.000 71.208,41.752 71.208,41.752 C71.208,41.752 71.518,44.048 71.518,44.048 C71.518,44.048 73.662,44.921 73.662,44.921 C75.400,45.630 77.129,46.623 78.528,47.718 C78.528,47.718 80.324,49.123 80.324,49.123 C80.324,49.123 82.447,48.292 82.447,48.292 C82.447,48.292 89.191,45.653 89.191,45.653 C89.191,45.653 93.989,53.749 93.989,53.749 C93.989,53.749 88.267,57.978 88.267,57.978 C88.267,57.978 86.484,59.179 86.484,59.179 C86.484,59.179 86.484,61.150 86.484,61.150 C86.484,61.893 86.757,62.554 86.803,63.138 C86.842,63.638 86.986,64.070 86.986,64.500 C86.986,65.487 87.041,66.508 86.927,67.180 C86.927,67.180 86.541,69.615 86.541,69.615 C86.541,69.615 88.546,71.076 88.546,71.076 C88.546,71.076 94.300,75.293 94.300,75.293 C94.300,75.293 89.534,83.347 89.534,83.347 Z" id="path-1" class="cls-4" fill-rule="evenodd"/>
  </g>
</svg>
