<svg xmlns="http://www.w3.org/2000/svg" xmlns:xlink="http://www.w3.org/1999/xlink" preserveAspectRatio="xMidYMid" width="393" height="393" viewBox="0 0 131 131">
  <defs>
    <style>

      .cls-3 {
        fill: #3e8ede;
        stroke: #ffffff;
        stroke-width: 5px;
      }

      .cls-4 {
        fill: #ffffff;
      }
    </style>
  </defs>
  <g id="1-mediaplayer-videos-icon">
    <circle id="circle-1" class="cls-3" cx="65" cy="65" r="63"/>
    <path d="M92.977,38.425 C92.977,38.425 38.735,38.425 38.735,38.425 C38.735,38.425 37.000,38.425 37.000,38.425 C37.000,38.425 37.000,37.944 37.000,37.944 C37.000,37.944 37.000,90.418 37.000,90.418 C37.000,90.418 37.000,92.961 37.000,92.961 C37.000,92.961 38.735,92.961 38.735,92.961 C38.735,92.961 92.977,92.961 92.977,92.961 C92.977,92.961 94.000,92.961 94.000,92.961 C94.000,92.961 94.000,90.418 94.000,90.418 C94.000,90.418 94.000,37.944 94.000,37.944 C94.000,37.944 94.000,38.425 94.000,38.425 C94.000,38.425 92.977,38.425 92.977,38.425 ZM48.000,88.003 C48.000,88.003 41.000,88.003 41.000,88.003 C41.000,88.003 41.000,83.045 41.000,83.045 C41.000,83.045 48.000,83.045 48.000,83.045 C48.000,83.045 48.000,88.003 48.000,88.003 ZM48.000,78.088 C48.000,78.088 41.000,78.088 41.000,78.088 C41.000,78.088 41.000,73.130 41.000,73.130 C41.000,73.130 48.000,73.130 48.000,73.130 C48.000,73.130 48.000,78.088 48.000,78.088 ZM48.000,68.172 C48.000,68.172 41.000,68.172 41.000,68.172 C41.000,68.172 41.000,63.214 41.000,63.214 C41.000,63.214 48.000,63.214 48.000,63.214 C48.000,63.214 48.000,68.172 48.000,68.172 ZM48.000,58.256 C48.000,58.256 41.000,58.256 41.000,58.256 C41.000,58.256 41.000,53.298 41.000,53.298 C41.000,53.298 48.000,53.298 48.000,53.298 C48.000,53.298 48.000,58.256 48.000,58.256 ZM48.000,48.340 C48.000,48.340 41.000,48.340 41.000,48.340 C41.000,48.340 41.000,43.382 41.000,43.382 C41.000,43.382 48.000,43.382 48.000,43.382 C48.000,43.382 48.000,48.340 48.000,48.340 ZM81.000,88.003 C81.000,88.003 51.000,88.003 51.000,88.003 C51.000,88.003 51.000,68.172 51.000,68.172 C51.000,68.172 81.000,68.172 81.000,68.172 C81.000,68.172 81.000,88.003 81.000,88.003 ZM81.000,63.214 C81.000,63.214 51.000,63.214 51.000,63.214 C51.000,63.214 51.000,43.382 51.000,43.382 C51.000,43.382 81.000,43.382 81.000,43.382 C81.000,43.382 81.000,63.214 81.000,63.214 ZM91.000,88.003 C91.000,88.003 84.000,88.003 84.000,88.003 C84.000,88.003 84.000,83.045 84.000,83.045 C84.000,83.045 91.000,83.045 91.000,83.045 C91.000,83.045 91.000,88.003 91.000,88.003 ZM91.000,78.088 C91.000,78.088 84.000,78.088 84.000,78.088 C84.000,78.088 84.000,73.130 84.000,73.130 C84.000,73.130 91.000,73.130 91.000,73.130 C91.000,73.130 91.000,78.088 91.000,78.088 ZM91.000,68.172 C91.000,68.172 84.000,68.172 84.000,68.172 C84.000,68.172 84.000,63.214 84.000,63.214 C84.000,63.214 91.000,63.214 91.000,63.214 C91.000,63.214 91.000,68.172 91.000,68.172 ZM91.000,58.256 C91.000,58.256 84.000,58.256 84.000,58.256 C84.000,58.256 84.000,53.298 84.000,53.298 C84.000,53.298 91.000,53.298 91.000,53.298 C91.000,53.298 91.000,58.256 91.000,58.256 ZM91.000,48.340 C91.000,48.340 84.000,48.340 84.000,48.340 C84.000,48.340 84.000,43.382 84.000,43.382 C84.000,43.382 91.000,43.382 91.000,43.382 C91.000,43.382 91.000,48.340 91.000,48.340 Z" id="path-1" class="cls-4" fill-rule="evenodd"/>
  </g>
</svg>
