<svg xmlns="http://www.w3.org/2000/svg" xmlns:xlink="http://www.w3.org/1999/xlink" preserveAspectRatio="xMidYMid" width="393" height="393" viewBox="0 0 131 131">
  <defs>
    <style>

      .cls-3 {
        fill: #3e8ede;
        stroke: #ffffff;
        stroke-width: 5px;
      }

      .cls-4 {
        fill: #ffffff;
      }
    </style>
  </defs>
  <g id="2-mediaplayer-photos-icon">
    <circle id="circle-1" class="cls-3" cx="65" cy="65" r="63"/>
    <path d="M94.139,91.000 C94.139,91.000 37.472,91.000 37.472,91.000 C34.355,91.000 31.000,87.904 31.000,84.794 C31.000,84.794 31.000,53.512 31.000,53.512 C31.000,50.402 34.355,47.667 37.472,47.667 C37.472,47.667 39.635,47.667 39.635,47.667 C39.635,47.667 39.635,45.500 39.635,45.500 C39.635,45.500 46.111,45.500 46.111,45.500 C46.111,45.500 46.111,47.667 46.111,47.667 C46.111,47.667 48.239,47.667 48.239,47.667 C53.958,41.167 55.712,39.000 57.890,39.000 C57.890,39.000 73.562,39.000 73.562,39.000 C75.740,39.000 77.528,41.167 83.213,47.667 C83.213,47.667 94.139,47.667 94.139,47.667 C97.255,47.667 99.000,50.402 99.000,53.512 C99.000,53.512 99.000,84.794 99.000,84.794 C99.000,87.904 97.255,91.000 94.139,91.000 ZM94.139,52.000 C94.139,52.000 83.213,52.000 83.213,52.000 C83.213,52.000 81.278,52.000 81.278,52.000 C81.278,52.000 79.990,50.614 79.990,50.614 C79.990,50.614 79.232,49.823 79.232,49.823 C76.560,46.813 74.235,44.417 73.293,43.333 C73.293,43.333 58.166,43.333 58.166,43.333 C57.257,44.417 55.049,46.560 52.512,49.403 C52.512,49.403 51.452,50.755 51.452,50.755 C51.452,50.755 50.165,52.000 50.165,52.000 C50.165,52.000 48.239,52.000 48.239,52.000 C48.239,52.000 45.883,52.000 45.883,52.000 C45.883,52.000 41.566,52.000 41.566,52.000 C41.566,52.000 39.863,52.000 39.863,52.000 C39.863,52.000 37.472,52.000 37.472,52.000 C36.657,52.000 35.317,52.945 35.317,53.512 C35.317,53.512 35.317,84.794 35.317,84.794 C35.317,85.504 36.748,86.667 37.472,86.667 C37.472,86.667 94.139,86.667 94.139,86.667 C94.759,86.667 94.683,85.542 94.683,84.794 C94.683,84.794 94.683,53.512 94.683,53.512 C94.683,53.000 95.034,52.000 94.139,52.000 ZM82.810,57.417 C82.810,57.417 88.206,57.417 88.206,57.417 C88.206,57.417 88.206,62.833 88.206,62.833 C88.206,62.833 82.810,62.833 82.810,62.833 C82.810,62.833 82.810,57.417 82.810,57.417 ZM65.540,82.608 C57.199,82.608 50.399,75.783 50.399,67.412 C50.399,59.041 57.199,52.215 65.540,52.215 C73.880,52.215 80.680,59.041 80.680,67.412 C80.680,75.783 73.880,82.608 65.540,82.608 ZM65.540,56.549 C59.572,56.549 54.717,61.422 54.717,67.412 C54.717,73.402 59.572,78.275 65.540,78.275 C71.508,78.275 76.363,73.402 76.363,67.412 C76.363,61.422 71.508,56.549 65.540,56.549 ZM65.540,73.099 C62.410,73.099 59.873,70.553 59.873,67.412 C59.873,64.271 62.410,61.724 65.540,61.724 C68.669,61.724 71.206,64.271 71.206,67.412 C71.206,70.553 68.669,73.099 65.540,73.099 Z" id="path-1" class="cls-4" fill-rule="evenodd"/>
  </g>
</svg>
