<svg xmlns="http://www.w3.org/2000/svg" xmlns:xlink="http://www.w3.org/1999/xlink" preserveAspectRatio="xMidYMid" width="260" height="260" viewBox="0 0 130 130">
  <defs>
    <style>

      .cls-3 {
        fill: #8ac640;
        stroke: #ffffff;
        stroke-width: 4px;
      }

      .cls-4 {
        fill: #ffffff;
      }
    </style>
  </defs>
  <g id="webbrowser-icon">
    <circle id="circle-1" class="cls-3" cx="65" cy="65" r="63"/>
    <path d="M31.993,66.409 C31.993,65.148 31.993,63.887 31.993,62.626 C32.051,62.163 32.115,61.701 32.165,61.237 C32.741,55.827 34.416,50.790 37.445,46.261 C43.002,37.953 50.729,32.975 60.621,31.405 C61.614,31.248 62.615,31.141 63.612,31.011 C64.873,31.011 66.134,31.011 67.395,31.011 C67.588,31.055 67.780,31.109 67.975,31.143 C70.143,31.515 72.364,31.697 74.472,32.284 C92.270,37.236 102.756,55.564 97.745,73.525 C93.366,89.218 78.572,99.340 62.281,97.839 C55.587,97.222 49.585,94.761 44.387,90.485 C37.715,84.996 33.702,77.957 32.388,69.403 C32.235,68.408 32.124,67.407 31.993,66.409 ZM94.663,65.623 C90.308,65.623 86.020,65.623 81.650,65.623 C81.505,70.945 80.442,76.081 78.473,80.863 C81.089,82.294 83.605,83.671 86.215,85.099 C91.419,79.758 94.273,73.266 94.663,65.623 ZM49.354,65.634 C44.962,65.634 40.675,65.634 36.334,65.634 C36.744,73.278 39.583,79.776 44.790,85.096 C47.433,83.653 49.964,82.270 52.536,80.865 C50.547,76.050 49.503,70.948 49.354,65.634 ZM94.664,63.414 C94.316,56.432 91.872,50.369 87.411,45.265 C84.643,46.894 81.979,48.462 79.240,50.075 C80.734,54.281 81.522,58.779 81.651,63.414 C86.011,63.414 90.300,63.414 94.664,63.414 ZM51.811,49.955 C50.364,49.195 48.964,48.527 47.632,47.742 C46.301,46.957 45.038,46.056 43.679,45.162 C39.139,50.388 36.673,56.442 36.352,63.408 C40.723,63.408 45.010,63.408 49.355,63.408 C49.485,58.776 50.266,54.299 51.811,49.955 ZM64.413,65.644 C60.058,65.644 55.777,65.644 51.470,65.644 C51.634,70.739 52.618,75.589 54.601,80.306 C57.812,79.274 61.078,78.763 64.413,78.632 C64.413,74.250 64.413,69.960 64.413,65.644 ZM66.598,78.652 C69.972,78.729 73.224,79.321 76.417,80.289 C78.383,75.529 79.399,70.675 79.521,65.622 C75.157,65.622 70.892,65.622 66.598,65.622 C66.598,69.951 66.598,74.239 66.598,78.652 ZM64.389,63.419 C64.389,59.770 64.389,56.185 64.389,52.538 C60.754,52.448 57.267,51.761 53.823,50.614 C52.328,54.792 51.592,59.026 51.479,63.419 C55.818,63.419 60.083,63.419 64.389,63.419 ZM79.529,63.431 C79.400,59.006 78.677,54.770 77.174,50.614 C73.713,51.786 70.217,52.432 66.626,52.551 C66.626,56.224 66.626,59.826 66.626,63.431 C70.932,63.431 75.180,63.431 79.529,63.431 ZM64.394,35.298 C59.984,39.003 56.852,43.452 54.632,48.648 C57.866,49.736 61.079,50.340 64.394,50.409 C64.394,45.364 64.394,40.408 64.394,35.298 ZM66.598,50.390 C69.081,50.489 74.512,49.485 76.351,48.587 C74.140,43.446 71.012,38.993 66.598,35.285 C66.598,40.426 66.598,45.386 66.598,50.390 ZM85.817,43.567 C81.421,39.401 76.347,36.812 70.433,35.830 C73.826,39.361 76.429,43.398 78.365,47.912 C81.049,46.799 83.472,45.366 85.817,43.567 ZM45.190,43.570 C47.535,45.370 49.963,46.812 52.644,47.912 C54.579,43.377 57.185,39.370 60.552,35.842 C54.653,36.820 49.585,39.403 45.190,43.570 ZM64.395,93.732 C64.395,89.328 64.395,85.077 64.395,80.767 C61.341,80.867 58.393,81.311 55.469,82.249 C57.665,86.687 60.528,90.508 64.395,93.732 ZM66.619,80.769 C66.619,85.109 66.619,89.348 66.619,93.614 C69.108,92.208 74.567,85.165 75.459,82.222 C72.592,81.317 69.657,80.867 66.619,80.769 ZM46.527,86.681 C50.684,90.168 55.300,92.343 60.554,93.193 C57.659,90.156 55.302,86.762 53.458,82.978 C50.983,83.928 48.727,85.140 46.527,86.681 ZM70.464,93.190 C75.732,92.321 80.366,90.155 84.478,86.673 C82.243,85.139 79.997,83.908 77.537,82.981 C75.693,86.781 73.338,90.153 70.464,93.190 Z" id="path-1" class="cls-4" fill-rule="evenodd"/>
  </g>
</svg>
