<svg xmlns="http://www.w3.org/2000/svg" xmlns:xlink="http://www.w3.org/1999/xlink" preserveAspectRatio="xMidYMid" width="131" height="131" viewBox="0 0 131 131">
  <defs>
    <style>

      .cls-3 {
        fill: #00b288;
        stroke: #ffffff;
        stroke-width: 5px;
      }

      .cls-4 {
        fill: #ffffff;
      }
    </style>
  </defs>
  <g id="2-settings-sound-icon-2">
    <circle id="circle-1" class="cls-3" cx="65" cy="65" r="63"/>
    <path d="M94.933,80.626 C94.577,81.239 93.935,81.581 93.276,81.581 C92.947,81.581 92.614,81.496 92.310,81.317 C91.396,80.781 91.088,79.601 91.622,78.682 C93.940,74.695 95.166,70.134 95.166,65.493 C95.166,61.073 94.049,56.704 91.935,52.857 C91.424,51.926 91.760,50.754 92.687,50.239 C93.614,49.725 94.781,50.063 95.292,50.995 C97.718,55.410 99.000,60.423 99.000,65.493 C99.000,70.817 97.594,76.050 94.933,80.626 ZM85.518,77.903 C85.279,77.903 85.038,77.858 84.803,77.763 C83.820,77.366 83.344,76.244 83.739,75.257 C84.982,72.151 85.613,68.866 85.613,65.493 C85.613,62.339 85.060,59.253 83.969,56.322 C83.598,55.326 84.101,54.216 85.093,53.843 C86.085,53.470 87.190,53.976 87.561,54.972 C88.813,58.337 89.447,61.876 89.447,65.493 C89.447,69.361 88.724,73.130 87.297,76.694 C86.996,77.446 86.277,77.903 85.518,77.903 ZM77.997,74.336 C77.841,74.336 77.683,74.317 77.525,74.276 C76.499,74.016 75.877,72.968 76.136,71.936 C76.664,69.839 76.932,67.671 76.932,65.493 C76.932,63.534 76.715,61.578 76.287,59.680 C76.053,58.642 76.700,57.610 77.733,57.375 C78.765,57.140 79.793,57.791 80.027,58.828 C80.518,61.006 80.767,63.248 80.767,65.493 C80.767,67.989 80.460,70.475 79.854,72.881 C79.634,73.754 78.854,74.336 77.997,74.336 ZM70.573,87.255 C70.573,87.715 70.526,88.166 70.437,88.606 C70.428,88.653 70.407,88.695 70.396,88.740 C70.121,89.970 69.519,91.103 68.610,92.017 C67.701,92.930 66.573,93.535 65.349,93.811 C65.303,93.820 65.261,93.841 65.216,93.852 C64.778,93.941 64.329,93.988 63.871,93.988 C63.822,93.988 63.777,93.975 63.728,93.974 C63.321,93.966 62.919,93.931 62.530,93.851 C62.484,93.842 62.445,93.822 62.402,93.813 C61.179,93.539 60.053,92.937 59.144,92.028 C55.228,88.093 51.313,84.158 47.397,80.224 C47.397,80.224 47.686,80.442 43.514,76.227 C43.086,76.243 42.695,76.251 42.570,76.251 C42.570,76.251 36.915,76.251 36.915,76.251 C35.304,76.251 33.998,74.939 33.998,73.320 C33.998,73.320 33.998,57.665 33.998,57.665 C33.998,56.046 35.304,54.734 36.915,54.734 C36.915,54.734 42.570,54.734 42.570,54.734 C42.711,54.734 43.069,54.745 43.412,54.765 C43.412,54.765 47.397,50.760 47.397,50.760 C51.310,46.829 55.222,42.898 59.134,38.967 C60.400,37.695 62.083,36.995 63.873,36.995 C67.503,36.998 70.453,39.916 70.553,43.543 C70.556,43.607 70.573,43.666 70.574,43.730 C70.574,43.730 70.572,87.251 70.572,87.251 C70.572,87.251 70.573,87.255 70.573,87.255 ZM57.172,46.380 C57.172,46.380 46.303,57.301 46.303,57.301 C46.299,57.305 46.295,57.309 46.292,57.312 C46.286,57.318 46.279,57.325 46.273,57.331 C45.994,57.611 45.732,57.903 45.488,58.204 C42.057,62.432 42.057,68.551 45.488,72.779 C45.732,73.080 45.994,73.372 46.274,73.653 C46.274,73.653 57.173,84.604 57.173,84.604 C57.173,84.604 57.172,46.380 57.172,46.380 ZM66.744,43.728 C66.744,43.694 66.726,43.666 66.725,43.632 C66.667,42.134 65.370,40.844 63.872,40.843 C63.105,40.844 62.384,41.143 61.842,41.688 C61.300,42.232 61.001,42.958 61.002,43.727 C61.002,43.727 61.001,87.256 61.001,87.256 C60.999,88.844 62.288,90.139 63.868,90.140 C63.868,90.140 63.870,90.141 63.870,90.140 C65.057,90.140 66.079,89.414 66.515,88.381 C66.516,88.379 66.518,88.378 66.518,88.378 C66.662,88.034 66.742,87.656 66.743,87.259 C66.743,87.259 66.744,87.258 66.743,87.256 C66.743,87.256 66.744,87.253 66.744,87.253 C66.744,87.253 66.745,43.735 66.745,43.735 C66.745,43.735 66.744,43.728 66.744,43.728 Z" id="path-1" class="cls-4" fill-rule="evenodd"/>
  </g>
</svg>
