<svg xmlns="http://www.w3.org/2000/svg" xmlns:xlink="http://www.w3.org/1999/xlink" preserveAspectRatio="xMidYMid" width="131" height="131" viewBox="0 0 131 131">
  <defs>
    <style>

      .cls-3 {
        fill: #00b288;
        stroke: #ffffff;
        stroke-width: 5px;
      }

      .cls-4 {
        fill: #ffffff;
      }
    </style>
  </defs>
  <g id="4-settings-setup-icon">
    <circle id="circle-1" class="cls-3" cx="65" cy="65" r="63"/>
    <path d="M87.622,96.000 C87.622,96.000 44.366,96.000 44.366,96.000 C38.645,96.000 33.991,91.322 33.991,85.573 C33.991,85.573 33.991,57.219 33.991,57.219 C33.991,51.470 38.645,46.792 44.366,46.792 C44.366,46.792 51.426,46.792 51.426,46.792 C51.426,46.792 39.496,31.082 39.496,31.082 C38.856,30.239 39.017,29.034 39.856,28.389 C40.696,27.747 41.895,27.910 42.535,28.752 C42.535,28.752 54.950,45.103 54.950,45.103 C54.950,45.103 64.091,30.770 64.091,30.770 C64.661,29.878 65.842,29.617 66.732,30.190 C67.620,30.763 67.879,31.951 67.309,32.844 C67.309,32.844 58.414,46.792 58.414,46.792 C58.414,46.792 87.622,46.792 87.622,46.792 C93.343,46.792 97.996,51.470 97.996,57.219 C97.996,57.219 97.996,85.573 97.996,85.573 C97.996,91.322 93.343,96.000 87.622,96.000 ZM94.174,57.219 C94.174,53.588 91.235,50.634 87.622,50.634 C87.622,50.634 44.366,50.634 44.366,50.634 C40.753,50.634 37.814,53.588 37.814,57.219 C37.814,57.219 37.814,85.573 37.814,85.573 C37.814,89.205 40.753,92.159 44.366,92.159 C44.366,92.159 87.622,92.159 87.622,92.159 C91.235,92.159 94.174,89.205 94.174,85.573 C94.174,85.573 94.174,57.219 94.174,57.219 ZM77.502,72.525 C77.502,72.525 80.039,77.537 80.039,77.537 C80.039,77.537 84.833,77.537 84.833,77.537 C84.920,77.537 83.046,80.575 83.046,80.575 C83.006,80.650 82.922,80.545 82.836,80.545 C82.836,80.545 73.485,80.545 73.485,80.545 C73.399,80.545 73.219,80.300 73.176,80.225 C73.176,80.225 70.501,75.532 70.501,75.532 C70.501,75.532 51.098,75.532 51.098,75.532 C49.216,75.532 47.684,73.914 47.684,72.023 C47.684,71.107 48.040,70.168 48.684,69.520 C49.329,68.871 50.186,68.515 51.098,68.515 C51.098,68.515 70.500,68.515 70.500,68.515 C70.500,68.515 73.275,63.669 73.275,63.669 C73.285,63.651 73.299,63.415 73.313,63.401 C73.358,63.355 73.420,63.502 73.485,63.502 C73.485,63.502 82.836,63.502 82.836,63.502 C82.922,63.502 83.003,63.889 83.046,63.964 C83.046,63.964 84.919,67.512 84.834,67.512 C84.834,67.512 80.039,67.512 80.039,67.512 C80.039,67.512 77.502,72.525 77.502,72.525 ZM53.667,70.429 C53.305,70.066 52.825,69.867 52.315,69.867 C51.804,69.866 51.323,70.065 50.962,70.429 C50.601,70.792 50.402,71.275 50.401,71.789 C50.401,72.848 51.260,73.711 52.315,73.711 C53.336,73.712 54.226,72.814 54.228,71.788 C54.227,71.274 54.028,70.792 53.667,70.429 ZM74.971,70.462 C74.971,69.940 74.550,69.517 74.031,69.517 C74.031,69.517 73.917,69.517 73.917,69.517 C73.397,69.517 72.976,69.940 72.976,70.462 C72.976,70.462 72.976,74.587 72.976,74.587 C72.976,75.109 73.397,75.532 73.917,75.532 C73.917,75.532 74.031,75.532 74.031,75.532 C74.550,75.532 74.971,75.109 74.971,74.587 C74.971,74.587 74.971,70.462 74.971,70.462 Z" id="path-1" class="cls-4" fill-rule="evenodd"/>
  </g>
</svg>
