<svg xmlns="http://www.w3.org/2000/svg" xmlns:xlink="http://www.w3.org/1999/xlink" preserveAspectRatio="xMidYMid" width="131" height="131" viewBox="0 0 131 131">
  <defs>
    <style>

      .cls-3 {
        fill: #00b288;
        stroke: #ffffff;
        stroke-width: 5px;
      }

      .cls-4 {
        fill: #ffffff;
      }
    </style>
  </defs>
  <g id="5-settings-channellist-icon">
    <circle id="circle-1" class="cls-3" cx="65" cy="65" r="63"/>
    <path d="M95.504,68.000 C95.504,68.000 52.561,68.000 52.561,68.000 C51.182,68.000 50.064,66.881 50.064,65.500 C50.064,64.119 51.182,63.000 52.561,63.000 C52.561,63.000 95.504,63.000 95.504,63.000 C96.883,63.000 98.000,64.119 98.000,65.500 C98.000,66.881 96.883,68.000 95.504,68.000 ZM95.504,49.000 C95.504,49.000 52.561,49.000 52.561,49.000 C51.182,49.000 50.064,47.881 50.064,46.500 C50.064,45.119 51.182,44.000 52.561,44.000 C52.561,44.000 95.504,44.000 95.504,44.000 C96.883,44.000 98.000,45.119 98.000,46.500 C98.000,47.881 96.883,49.000 95.504,49.000 ZM37.492,89.000 C35.010,89.000 32.998,86.985 32.998,84.500 C32.998,82.015 35.010,80.000 37.492,80.000 C39.974,80.000 41.986,82.015 41.986,84.500 C41.986,86.985 39.974,89.000 37.492,89.000 ZM37.492,70.000 C35.010,70.000 32.998,67.985 32.998,65.500 C32.998,63.015 35.010,61.000 37.492,61.000 C39.974,61.000 41.986,63.015 41.986,65.500 C41.986,67.985 39.974,70.000 37.492,70.000 ZM37.492,51.000 C35.010,51.000 32.998,48.985 32.998,46.500 C32.998,44.015 35.010,42.000 37.492,42.000 C39.974,42.000 41.986,44.015 41.986,46.500 C41.986,48.985 39.974,51.000 37.492,51.000 ZM52.561,82.000 C52.561,82.000 95.504,82.000 95.504,82.000 C96.883,82.000 98.000,83.119 98.000,84.500 C98.000,85.881 96.883,87.000 95.504,87.000 C95.504,87.000 52.561,87.000 52.561,87.000 C51.182,87.000 50.064,85.881 50.064,84.500 C50.064,83.119 51.182,82.000 52.561,82.000 Z" id="path-1" class="cls-4" fill-rule="evenodd"/>
  </g>
</svg>
