<svg xmlns="http://www.w3.org/2000/svg" xmlns:xlink="http://www.w3.org/1999/xlink" preserveAspectRatio="xMidYMid" width="150" height="150" viewBox="0 0 50 50">
  <defs>
    <style>

      .cls-2 {
        fill: #ffffff;
      }
    </style>
  </defs>
  <path d="M24.995,50.007 C23.508,50.007 22.053,49.871 20.638,49.622 C20.638,49.622 22.585,47.552 22.585,47.552 C23.383,47.637 24.188,47.680 24.995,47.680 C37.494,47.680 47.663,37.506 47.663,25.001 C47.663,12.495 37.494,2.321 24.995,2.321 C12.495,2.321 2.326,12.495 2.326,25.001 C2.326,31.938 5.543,38.520 10.968,42.807 C10.968,42.807 10.760,45.548 10.760,45.548 C10.630,45.458 10.497,45.373 10.369,45.280 C4.088,40.738 0.001,33.347 0.001,25.001 C0.001,11.191 11.191,-0.005 24.995,-0.005 C38.798,-0.005 49.988,11.191 49.988,25.001 C49.988,38.811 38.798,50.007 24.995,50.007 ZM28.148,10.776 C28.148,10.776 36.243,14.767 36.243,14.767 C36.243,14.767 24.370,38.871 24.370,38.871 C24.362,39.014 15.670,46.920 15.670,46.920 C15.560,47.021 15.430,47.052 15.332,47.006 C15.235,46.956 15.182,46.835 15.192,46.687 C15.192,46.687 16.164,34.976 16.276,34.877 C16.276,34.877 28.148,10.776 28.148,10.776 ZM27.230,15.423 C27.230,15.423 17.947,34.267 17.947,34.267 C17.947,34.267 19.605,36.122 19.605,36.122 C19.605,36.122 29.282,16.475 29.282,16.475 C29.282,16.475 27.230,15.423 27.230,15.423 ZM32.933,18.443 C32.933,18.443 31.037,17.341 31.037,17.341 C31.037,17.341 21.356,36.989 21.356,36.989 C21.356,36.989 23.651,37.288 23.651,37.288 C23.651,37.288 32.933,18.443 32.933,18.443 ZM17.030,43.560 C17.097,43.590 17.182,43.570 17.257,43.505 C17.257,43.505 22.658,39.011 22.665,38.913 C22.672,38.815 22.638,38.733 22.572,38.702 C22.572,38.702 19.342,38.785 19.342,38.785 C19.342,38.785 17.504,36.205 17.504,36.205 C17.439,36.169 17.353,36.193 17.281,36.259 C17.207,36.324 16.936,43.347 16.936,43.347 C16.928,43.445 16.966,43.527 17.030,43.560 Z" id="path-1" class="cls-2" fill-rule="evenodd"/>
</svg>
