<svg xmlns="http://www.w3.org/2000/svg" xmlns:xlink="http://www.w3.org/1999/xlink" preserveAspectRatio="xMidYMid" width="262" height="262" viewBox="0 0 131 131">
  <defs>
    <style>

      .cls-3 {
        fill: #3e8ede;
        stroke: #ffffff;
        stroke-width: 5px;
      }

      .cls-4 {
        fill: #ffffff;
      }
    </style>
  </defs>
  <g id="4-mediaplayer-recordings-icon">
    <circle id="circle-1" class="cls-3" cx="65" cy="65" r="63"/>
    <path d="M85.792,82.942 C85.640,82.976 85.483,82.981 85.321,82.981 C85.321,82.981 46.044,82.981 46.044,82.981 C45.953,82.981 45.863,83.000 45.775,82.988 C36.458,82.591 29.000,74.927 29.000,65.526 C29.000,55.872 36.864,48.040 46.532,48.040 C56.199,48.040 64.064,55.937 64.064,65.591 C64.064,70.914 61.669,75.991 57.903,78.986 C57.903,78.986 73.097,78.986 73.097,78.986 C69.331,75.991 66.936,70.914 66.936,65.591 C66.936,55.937 74.801,47.997 84.468,47.997 C94.136,47.997 102.000,55.851 102.000,65.505 C102.000,74.713 94.843,82.263 85.792,82.942 ZM60.532,65.505 C60.532,57.796 54.252,51.525 46.532,51.525 C38.812,51.525 32.532,57.796 32.532,65.505 C32.532,73.213 38.812,79.484 46.532,79.484 C54.252,79.484 60.532,73.213 60.532,65.505 ZM84.468,51.525 C76.748,51.525 70.468,57.796 70.468,65.505 C70.468,73.213 76.748,79.484 84.468,79.484 C92.188,79.484 98.468,73.213 98.468,65.505 C98.468,57.796 92.188,51.525 84.468,51.525 ZM84.468,74.634 C79.380,74.634 75.240,70.500 75.240,65.419 C75.240,60.337 79.380,56.204 84.468,56.204 C89.556,56.204 93.696,60.337 93.696,65.419 C93.696,70.500 89.556,74.634 84.468,74.634 ZM84.468,59.275 C81.076,59.275 78.316,62.031 78.316,65.419 C78.316,68.806 81.076,71.562 84.468,71.562 C87.861,71.562 90.620,68.806 90.620,65.419 C90.620,62.031 87.861,59.275 84.468,59.275 ZM46.532,74.634 C41.444,74.634 37.304,70.500 37.304,65.419 C37.304,60.337 41.444,56.204 46.532,56.204 C51.620,56.204 55.760,60.337 55.760,65.419 C55.760,70.500 51.620,74.634 46.532,74.634 ZM46.532,59.275 C43.139,59.275 40.380,62.031 40.380,65.419 C40.380,68.806 43.139,71.562 46.532,71.562 C49.924,71.562 52.684,68.806 52.684,65.419 C52.684,62.031 49.924,59.275 46.532,59.275 Z" id="path-1" class="cls-4" fill-rule="evenodd"/>
  </g>
</svg>
