<svg xmlns="http://www.w3.org/2000/svg" xmlns:xlink="http://www.w3.org/1999/xlink" preserveAspectRatio="xMidYMid" width="262" height="262" viewBox="0 0 131 131">
  <defs>
    <style>

      .cls-3 {
        fill: #3e8ede;
        stroke: #ffffff;
        stroke-width: 5px;
      }

      .cls-4 {
        fill: #ffffff;
      }
    </style>
  </defs>
  <g id="5-mediaplayer-settings-icon">
    <circle id="circle-1" class="cls-3" cx="65" cy="65" r="63"/>
    <path d="M91.577,63.000 C91.577,64.226 91.756,65.275 91.756,66.501 C91.756,67.726 91.756,68.952 91.577,70.001 C91.577,70.001 99.450,75.776 99.450,75.776 C99.987,76.301 100.166,77.354 99.808,78.053 C99.808,78.053 92.651,90.133 92.651,90.133 C92.388,90.646 91.838,90.978 91.211,90.978 C90.982,90.978 90.743,90.950 90.503,90.857 C90.503,90.857 81.556,87.388 81.556,87.388 C79.588,88.788 77.619,90.076 75.473,90.951 C75.473,90.951 74.040,100.350 74.040,100.350 C73.862,101.049 73.145,102.000 72.251,102.000 C72.251,102.000 57.935,102.000 57.935,102.000 C57.041,102.000 56.326,101.225 56.146,100.350 C56.146,100.350 54.715,90.826 54.715,90.826 C52.567,89.951 50.421,88.725 48.632,87.326 C48.632,87.326 39.685,90.826 39.685,90.826 C39.493,90.919 39.276,90.962 39.053,90.962 C38.794,90.962 38.533,90.893 38.293,90.786 C38.293,90.786 37.398,89.891 37.398,89.891 C37.398,89.891 30.380,78.049 30.380,78.049 C29.843,77.174 30.021,76.299 30.738,75.775 C30.738,75.775 38.252,70.000 38.252,70.000 C38.252,68.775 38.074,67.726 38.074,66.501 C38.074,65.275 38.252,64.226 38.252,63.001 C38.252,63.001 30.558,57.228 30.558,57.228 C30.021,56.703 29.843,55.654 30.199,54.955 C30.199,54.955 37.357,42.883 37.357,42.883 C37.619,42.370 38.169,42.053 38.796,42.053 C39.026,42.053 39.265,42.112 39.505,42.206 C39.505,42.206 48.452,45.737 48.452,45.737 C50.421,44.337 52.389,43.174 54.536,42.299 C54.536,42.299 55.967,33.150 55.967,33.150 C56.146,32.451 56.862,32.000 57.757,32.000 C57.757,32.000 72.072,32.000 72.072,32.000 C72.967,32.000 73.683,32.451 73.862,33.150 C73.862,33.150 75.114,42.174 75.114,42.174 C77.262,43.049 79.408,44.275 81.197,45.674 C81.197,45.674 90.144,42.174 90.144,42.174 C90.336,42.081 90.553,42.038 90.776,42.038 C90.984,42.038 91.191,42.087 91.391,42.158 C91.391,42.158 92.560,43.327 92.560,43.327 C92.560,43.327 99.449,54.951 99.449,54.951 C99.986,55.826 99.808,56.701 99.091,57.225 C99.091,57.225 91.577,63.000 91.577,63.000 ZM89.767,46.812 C89.767,46.812 82.719,49.571 82.719,49.571 C82.719,49.571 80.500,50.444 80.500,50.444 C80.500,50.444 78.624,48.987 78.624,48.987 C77.161,47.842 75.355,46.825 73.538,46.085 C73.538,46.085 71.298,45.212 71.298,45.212 C71.298,45.212 70.974,42.894 70.974,42.894 C70.974,42.894 70.021,36.000 70.021,36.000 C70.021,36.000 59.766,36.000 59.766,36.000 C59.766,36.000 58.664,42.972 58.664,42.972 C58.664,42.972 58.302,45.152 58.302,45.152 C58.302,45.152 56.109,46.044 56.109,46.044 C54.539,46.684 52.919,47.621 50.865,49.081 C50.865,49.081 49.019,50.389 49.019,50.389 C49.019,50.389 46.904,49.566 46.904,49.566 C46.904,49.566 39.830,46.809 39.830,46.809 C39.830,46.809 34.777,55.246 34.777,55.246 C34.777,55.246 40.550,59.657 40.550,59.657 C40.550,59.657 42.011,60.911 42.011,60.911 C42.011,60.911 42.011,63.000 42.011,63.000 C42.011,63.776 42.114,64.467 42.066,65.077 C42.025,65.599 42.147,66.051 42.147,66.500 C42.147,66.949 42.078,67.401 42.119,67.923 C42.166,68.533 42.011,69.224 42.011,70.000 C42.011,70.000 42.011,72.059 42.011,72.059 C42.011,72.059 40.588,73.315 40.588,73.315 C40.588,73.315 35.049,77.735 35.049,77.735 C35.049,77.735 40.062,86.196 40.062,86.196 C40.062,86.196 47.110,83.444 47.110,83.444 C47.110,83.444 49.329,82.587 49.329,82.587 C49.329,82.587 51.206,84.076 51.206,84.076 C52.668,85.220 54.474,86.300 56.291,87.040 C56.291,87.040 58.483,88.018 58.483,88.018 C58.483,88.018 58.844,90.528 58.844,90.528 C58.844,90.528 59.945,98.000 59.945,98.000 C59.945,98.000 70.242,98.000 70.242,98.000 C70.242,98.000 71.344,90.527 71.344,90.527 C71.344,90.527 71.705,87.849 71.705,87.849 C71.705,87.849 73.896,86.956 73.896,86.956 C75.470,86.314 77.085,85.378 79.134,83.920 C79.134,83.920 80.974,82.611 80.974,82.611 C80.974,82.611 83.076,83.434 83.076,83.434 C83.076,83.434 90.123,86.191 90.123,86.191 C90.123,86.191 95.107,77.776 95.107,77.776 C95.107,77.776 89.094,73.370 89.094,73.370 C89.094,73.370 87.001,71.844 87.001,71.844 C87.001,71.844 87.408,69.299 87.408,69.299 C87.527,68.598 87.477,67.532 87.477,66.500 C87.477,66.051 87.341,65.599 87.300,65.077 C87.253,64.467 86.998,63.776 86.998,63.000 C86.998,63.000 86.998,60.941 86.998,60.941 C86.998,60.941 88.831,59.686 88.831,59.686 C88.831,59.686 94.680,55.269 94.680,55.269 C94.680,55.269 89.767,46.812 89.767,46.812 ZM64.915,82.929 C55.704,82.929 48.211,75.559 48.211,66.500 C48.211,57.441 55.704,50.071 64.915,50.071 C74.125,50.071 81.618,57.441 81.618,66.500 C81.618,75.559 74.125,82.929 64.915,82.929 ZM64.915,54.250 C57.935,54.250 52.389,59.674 52.389,66.500 C52.389,73.326 57.935,78.750 64.915,78.750 C71.894,78.750 77.440,73.326 77.440,66.500 C77.440,59.674 71.894,54.250 64.915,54.250 Z" id="path-1" class="cls-4" fill-rule="evenodd"/>
  </g>
</svg>
