<svg xmlns="http://www.w3.org/2000/svg" xmlns:xlink="http://www.w3.org/1999/xlink" preserveAspectRatio="xMidYMid" width="150" height="132" viewBox="0 0 50 44">
  <defs>
    <style>

      .cls-2 {
        fill: #ffffff;
      }
    </style>
  </defs>
  <path d="M47.690,43.986 C46.418,43.986 45.388,42.964 45.388,41.703 C45.388,41.703 45.388,29.323 45.388,29.323 C45.388,24.541 41.462,20.651 36.637,20.651 C36.637,20.651 8.752,20.651 8.752,20.651 C8.752,20.651 24.200,32.117 24.200,32.117 C25.218,32.873 25.425,34.303 24.663,35.312 C24.210,35.910 23.518,36.226 22.818,36.226 C22.337,36.226 21.853,36.078 21.439,35.770 C21.439,35.770 0.920,20.540 0.920,20.540 C0.360,20.125 0.021,19.478 -0.001,18.784 C-0.022,18.090 0.275,17.424 0.809,16.975 C0.809,16.975 20.320,0.539 20.320,0.539 C21.288,-0.278 22.741,-0.160 23.565,0.799 C24.389,1.760 24.271,3.200 23.302,4.016 C23.302,4.016 8.975,16.086 8.975,16.086 C8.975,16.086 36.637,16.086 36.637,16.086 C44.002,16.086 49.993,22.024 49.993,29.323 C49.993,29.323 49.993,41.703 49.993,41.703 C49.993,42.964 48.962,43.986 47.690,43.986 Z" id="path-1" class="cls-2" fill-rule="evenodd"/>
</svg>
