<svg xmlns="http://www.w3.org/2000/svg" xmlns:xlink="http://www.w3.org/1999/xlink" preserveAspectRatio="xMidYMid" width="262" height="262" viewBox="0 0 131 131">
  <defs>
    <style>

      .cls-3 {
        fill: #00b288;
        stroke: #ffffff;
        stroke-width: 5px;
      }

      .cls-4 {
        fill: #ffffff;
      }
    </style>
  </defs>
  <g id="1-settings-picture-icon">
    <circle id="circle-1" class="cls-3" cx="65" cy="65" r="63"/>
    <path d="M90.341,95.500 C90.341,95.500 40.650,95.500 40.650,95.500 C37.806,95.500 35.493,93.081 35.493,90.109 C35.493,90.109 35.493,40.886 35.493,40.886 C35.493,37.912 37.806,35.495 40.650,35.495 C40.650,35.495 90.341,35.495 90.341,35.495 C93.185,35.495 95.498,37.912 95.498,40.886 C95.498,40.886 95.498,90.109 95.498,90.109 C95.498,93.081 93.185,95.500 90.341,95.500 ZM91.747,40.886 C91.747,39.982 91.117,39.245 90.341,39.245 C90.341,39.245 40.650,39.245 40.650,39.245 C39.873,39.245 39.243,39.982 39.243,40.886 C39.243,40.886 39.243,90.109 39.243,90.109 C39.243,91.013 39.873,91.749 40.650,91.749 C40.650,91.749 90.341,91.749 90.341,91.749 C91.117,91.749 91.747,91.013 91.747,90.109 C91.747,90.109 91.747,40.886 91.747,40.886 ZM86.122,84.249 C86.122,84.249 82.372,84.249 82.372,84.249 C82.372,84.249 48.619,84.249 48.619,84.249 C48.619,84.249 44.869,84.249 44.869,84.249 C43.832,84.249 42.994,83.410 42.994,82.374 C42.994,82.374 42.994,78.623 42.994,78.623 C42.994,78.623 42.994,48.621 42.994,48.621 C42.994,48.621 42.994,44.871 42.994,44.871 C42.994,43.836 43.832,42.996 44.869,42.996 C44.869,42.996 48.619,42.996 48.619,42.996 C48.619,42.996 82.372,42.996 82.372,42.996 C82.372,42.996 86.122,42.996 86.122,42.996 C87.158,42.996 87.997,43.836 87.997,44.871 C87.997,44.871 87.997,48.621 87.997,48.621 C87.997,48.621 87.997,78.623 87.997,78.623 C87.997,78.623 87.997,82.374 87.997,82.374 C87.997,83.410 87.158,84.249 86.122,84.249 ZM48.619,80.499 C48.619,80.499 65.254,80.499 65.254,80.499 C65.254,80.499 57.713,72.959 57.713,72.959 C56.980,72.229 55.794,72.229 55.061,72.959 C55.061,72.959 47.757,80.262 47.757,80.262 C48.018,80.400 48.302,80.499 48.619,80.499 ZM84.247,48.621 C84.247,47.587 83.406,46.746 82.372,46.746 C82.372,46.746 48.619,46.746 48.619,46.746 C47.585,46.746 46.744,47.587 46.744,48.621 C46.744,48.621 46.744,75.972 46.744,75.972 C46.744,75.972 52.410,70.306 52.410,70.306 C54.603,68.114 58.171,68.118 60.364,70.306 C60.364,70.306 61.489,71.431 61.489,71.431 C61.489,71.431 71.403,61.520 71.403,61.520 C73.597,59.326 77.164,59.328 79.357,61.518 C79.357,61.518 84.247,66.408 84.247,66.408 C84.247,66.408 84.247,48.621 84.247,48.621 ZM84.247,71.709 C84.247,71.709 76.706,64.172 76.706,64.172 C75.973,63.441 74.787,63.441 74.054,64.172 C74.054,64.172 64.140,74.082 64.140,74.082 C64.140,74.082 70.557,80.499 70.557,80.499 C70.557,80.499 82.372,80.499 82.372,80.499 C83.406,80.499 84.247,79.656 84.247,78.623 C84.247,78.623 84.247,71.709 84.247,71.709 ZM57.995,65.497 C53.858,65.497 50.494,62.134 50.494,57.997 C50.494,53.862 53.858,50.496 57.995,50.496 C62.132,50.496 65.495,53.862 65.495,57.997 C65.495,62.134 62.132,65.497 57.995,65.497 ZM57.995,54.247 C55.927,54.247 54.245,55.928 54.245,57.997 C54.245,60.066 55.927,61.747 57.995,61.747 C60.062,61.747 61.745,60.066 61.745,57.997 C61.745,55.928 60.062,54.247 57.995,54.247 Z" id="path-1" class="cls-4" fill-rule="evenodd"/>
  </g>
</svg>
