<svg xmlns="http://www.w3.org/2000/svg" xmlns:xlink="http://www.w3.org/1999/xlink" preserveAspectRatio="xMidYMid" width="262" height="262" viewBox="0 0 131 131">
  <defs>
    <style>

      .cls-3 {
        fill: #00b288;
        stroke: #ffffff;
        stroke-width: 5px;
      }

      .cls-4 {
        fill: #ffffff;
      }
    </style>
  </defs>
  <g id="2-settings-sound-icon">
    <circle id="circle-1" class="cls-3" cx="65" cy="65" r="63"/>
    <path d="M83.000,37.969 C83.000,37.352 82.711,36.770 82.220,36.397 C81.732,36.026 81.097,35.905 80.502,36.078 C80.502,36.078 53.086,43.979 53.086,43.979 C52.246,44.221 51.667,44.992 51.667,45.870 C51.667,45.870 51.667,81.330 51.667,81.330 C50.026,80.081 48.004,79.312 45.792,79.312 C40.393,79.312 36.000,83.727 36.000,89.152 C36.000,94.578 40.393,98.992 45.792,98.992 C51.190,98.992 55.583,94.578 55.583,89.152 C55.583,89.152 55.583,55.195 55.583,55.195 C55.583,55.195 79.083,48.424 79.083,48.424 C79.083,48.424 79.083,73.458 79.083,73.458 C77.442,72.209 75.421,71.440 73.208,71.440 C67.810,71.440 63.417,75.855 63.417,81.280 C63.417,86.705 67.810,91.120 73.208,91.120 C78.607,91.120 83.000,86.705 83.000,81.280 C83.000,81.280 83.000,37.969 83.000,37.969 ZM45.792,95.056 C42.552,95.056 39.917,92.408 39.917,89.152 C39.917,85.897 42.552,83.248 45.792,83.248 C49.031,83.248 51.667,85.897 51.667,89.152 C51.667,92.408 49.031,95.056 45.792,95.056 ZM55.583,47.353 C55.583,47.353 79.083,40.581 79.083,40.581 C79.083,40.581 79.083,44.328 79.083,44.328 C79.083,44.328 55.583,51.101 55.583,51.101 C55.583,51.101 55.583,47.353 55.583,47.353 ZM73.208,87.184 C69.969,87.184 67.333,84.536 67.333,81.280 C67.333,78.025 69.969,75.376 73.208,75.376 C76.448,75.376 79.083,78.025 79.083,81.280 C79.083,84.536 76.448,87.184 73.208,87.184 Z" id="path-1" class="cls-4" fill-rule="evenodd"/>
  </g>
</svg>
