<svg xmlns="http://www.w3.org/2000/svg" xmlns:xlink="http://www.w3.org/1999/xlink" preserveAspectRatio="xMidYMid" width="262" height="262" viewBox="0 0 131 131">
  <defs>
    <style>

      .cls-3 {
        fill: #00b288;
        stroke: #ffffff;
        stroke-width: 5px;
      }

      .cls-4 {
        fill: #ffffff;
      }
    </style>
  </defs>
  <g id="3-settings-general-icon">
    <circle id="circle-1" class="cls-3" cx="65" cy="65" r="63"/>
    <path d="M84.154,87.592 C83.284,89.597 81.302,91.002 79.000,91.002 C76.698,91.002 74.716,89.597 73.846,87.592 C73.846,87.592 34.000,87.592 34.000,87.592 C34.000,87.592 34.000,83.045 34.000,83.045 C34.000,83.045 73.846,83.045 73.846,83.045 C74.716,81.040 76.698,79.636 79.000,79.636 C81.302,79.636 83.284,81.040 84.154,83.045 C84.154,83.045 97.000,83.045 97.000,83.045 C97.000,83.045 97.000,87.592 97.000,87.592 C97.000,87.592 84.154,87.592 84.154,87.592 ZM52.000,71.679 C49.698,71.679 47.716,70.274 46.846,68.269 C46.846,68.269 34.000,68.269 34.000,68.269 C34.000,68.269 34.000,63.723 34.000,63.723 C34.000,63.723 46.846,63.723 46.846,63.723 C47.716,61.718 49.698,60.313 52.000,60.313 C54.302,60.313 56.284,61.718 57.154,63.723 C57.154,63.723 97.000,63.723 97.000,63.723 C97.000,63.723 97.000,68.269 97.000,68.269 C97.000,68.269 57.154,68.269 57.154,68.269 C56.284,70.274 54.302,71.679 52.000,71.679 ZM79.000,52.356 C76.698,52.356 74.716,50.952 73.846,48.946 C73.846,48.946 34.000,48.946 34.000,48.946 C34.000,48.946 34.000,44.400 34.000,44.400 C34.000,44.400 73.846,44.400 73.846,44.400 C74.716,42.395 76.698,40.990 79.000,40.990 C81.302,40.990 83.284,42.395 84.154,44.400 C84.154,44.400 97.000,44.400 97.000,44.400 C97.000,44.400 97.000,48.946 97.000,48.946 C97.000,48.946 84.154,48.946 84.154,48.946 C83.284,50.952 81.302,52.356 79.000,52.356 Z" id="path-1" class="cls-4" fill-rule="evenodd"/>
  </g>
</svg>
